<?xml version="1.0" encoding="utf-8"?>
<!-- Generator: Adobe Illustrator 24.1.3, SVG Export Plug-In . SVG Version: 6.00 Build 0)  -->
<svg version="1.1" id="Layer_1" xmlns="http://www.w3.org/2000/svg" xmlns:xlink="http://www.w3.org/1999/xlink" x="0px" y="0px"
	 viewBox="0 0 84 84" style="enable-background:new 0 0 84 84;" xml:space="preserve">
<style type="text/css">
	.st0{fill:#E6E6E6;}
	.st1{fill:#CCCCCC;}
	.st2{fill:#FFFFFF;}
	.st3{fill:#666666;}
</style>
<desc>Created with Sketch.</desc>
<g>
	<g>
		<circle class="st0" cx="42" cy="42" r="41"/>
		<path class="st1" d="M13.7,13.7c15.6-15.6,40.9-15.6,56.6,0s15.6,40.9,0,56.6s-40.9,15.6-56.6,0S-1.9,29.4,13.7,13.7 M12.3,12.3
			c-16.4,16.4-16.4,43,0,59.4s43,16.4,59.4,0s16.4-43,0-59.4S28.7-4.1,12.3,12.3L12.3,12.3z"/>
		<path class="st2" d="M14.4,14.4c15.2-15.2,39.9-15.2,55.2,0s15.2,39.9,0,55.2s-39.9,15.2-55.2,0S-0.8,29.6,14.4,14.4 M13.7,13.7
			c-15.6,15.6-15.6,40.9,0,56.6s40.9,15.6,56.6,0s15.6-40.9,0-56.6S29.3-1.9,13.7,13.7L13.7,13.7z"/>
	</g>
	<polygon class="st3" points="44,19.3 52,19.3 42,2 32,19.3 40,19.3 40,64.7 32,64.7 42,82 52,64.7 44,64.7 	"/>
</g>
</svg>
