<?xml version="1.0" encoding="utf-8"?>
<!-- Generator: Adobe Illustrator 24.1.3, SVG Export Plug-In . SVG Version: 6.00 Build 0)  -->
<svg version="1.1" id="Layer_1" xmlns="http://www.w3.org/2000/svg" xmlns:xlink="http://www.w3.org/1999/xlink" x="0px" y="0px"
	 viewBox="0 0 84 84" style="enable-background:new 0 0 84 84;" xml:space="preserve">
<style type="text/css">
	.st0{fill:#E6E6E6;}
	.st1{fill:#CCCCCC;}
	.st2{fill:#FFFFFF;}
	.st3{fill:#666666;}
</style>
<desc>Created with Sketch.</desc>
<g>
	<g>
		<path class="st0" d="M42,83c-11,0-21.2-4.3-29-12C-3,55-3,29,13,13C20.8,5.3,31,1,42,1c11,0,21.2,4.3,29,12c16,16,16,42,0,58
			C63.2,78.7,53,83,42,83z"/>
		<path class="st1" d="M42,2c10.2,0,20.5,3.9,28.3,11.7c15.6,15.6,15.6,40.9,0,56.6C62.5,78.1,52.2,82,42,82s-20.5-3.9-28.3-11.7
			c-15.6-15.6-15.6-40.9,0-56.6C21.5,5.9,31.8,2,42,2 M42,0C30.8,0,20.2,4.4,12.3,12.3C4.4,20.2,0,30.8,0,42
			c0,11.2,4.4,21.8,12.3,29.7C20.2,79.6,30.8,84,42,84c11.2,0,21.8-4.4,29.7-12.3C79.6,63.8,84,53.2,84,42
			c0-11.2-4.4-21.8-12.3-29.7C63.8,4.4,53.2,0,42,0L42,0z"/>
	</g>
	<g>
		<path class="st2" d="M42,3c10.4,0,20.2,4.1,27.6,11.4c15.2,15.2,15.2,39.9,0,55.2C62.2,76.9,52.4,81,42,81
			c-10.4,0-20.2-4.1-27.6-11.4c-15.2-15.2-15.2-39.9,0-55.2C21.8,7.1,31.6,3,42,3 M42,2C31.8,2,21.5,5.9,13.7,13.7
			c-15.6,15.6-15.6,40.9,0,56.6C21.5,78.1,31.8,82,42,82s20.5-3.9,28.3-11.7c15.6-15.6,15.6-40.9,0-56.6C62.5,5.9,52.2,2,42,2L42,2z
			"/>
	</g>
	<g>
		<rect x="40" y="2" class="st3" width="4" height="80"/>
	</g>
	<g>
		<g>
			<rect x="17.6" y="41" class="st3" width="11.7" height="2"/>
		</g>
		<g>
			<g>
				<polygon class="st3" points="19.1,47.2 10.1,42 19.1,36.8 				"/>
			</g>
		</g>
	</g>
	<g>
		<g>
			<rect x="54.7" y="41" class="st3" width="11.7" height="2"/>
		</g>
		<g>
			<g>
				<polygon class="st3" points="64.9,36.8 73.9,42 64.9,47.2 				"/>
			</g>
		</g>
	</g>
</g>
</svg>
