<?xml version="1.0" encoding="utf-8"?>
<!-- Traced from bow.png via potrace, recolored soft pink and centered in a
     padded square canvas so it tiles into a spaced diagonal grid. -->
<svg xmlns="http://www.w3.org/2000/svg" viewBox="-751 -892 2400 2400" preserveAspectRatio="xMidYMid meet">
<g transform="translate(-35.225097,654.718298) scale(0.100000,-0.100000)" fill="#fa83b5" stroke="none">
<path d="M7430 6544 c-322 -36 -662 -152 -908 -311 -239 -153 -538 -454 -705
-707 -204 -309 -358 -603 -544 -1041 -85 -201 -133 -291 -210 -399 -36 -50
-72 -104 -80 -119 -19 -37 -26 -30 -12 12 13 38 5 88 -19 116 -48 56 -264 115
-421 115 -79 0 -160 -22 -185 -49 -26 -28 -30 -86 -12 -170 9 -41 14 -76 12
-78 -5 -6 -83 106 -228 327 -214 328 -344 500 -627 830 -145 168 -589 615
-696 700 -44 35 -104 85 -132 111 -157 141 -449 304 -685 383 -221 73 -272 81
-513 80 -236 -2 -328 -12 -442 -50 -232 -77 -404 -204 -526 -388 -150 -226
-181 -465 -105 -816 38 -180 128 -398 219 -532 126 -185 367 -435 549 -569 85
-63 267 -168 407 -235 174 -83 265 -118 349 -133 325 -58 293 -55 609 -55 242
0 335 4 480 21 99 12 259 27 355 33 164 11 233 19 305 35 62 15 1 -23 -120
-75 -66 -28 -194 -90 -285 -138 -227 -118 -270 -140 -395 -197 -607 -273 -875
-474 -1092 -815 -108 -169 -248 -500 -293 -690 -18 -77 -122 -336 -178 -444
-66 -129 -133 -210 -270 -325 -88 -74 -165 -114 -274 -142 -105 -28 -158 -54
-158 -78 0 -15 18 -25 83 -46 77 -26 202 -74 292 -115 203 -90 286 -121 420
-153 169 -41 235 -50 370 -51 108 -1 136 2 163 17 73 40 176 155 246 274 66
112 161 360 212 553 14 52 38 140 54 195 16 55 47 170 69 255 68 259 78 292
111 375 76 193 190 364 334 503 181 174 330 272 492 322 38 12 89 29 114 37
25 8 96 30 158 49 164 50 236 87 313 164 79 78 138 191 164 315 19 85 36 115
67 115 41 0 93 -43 110 -90 5 -16 21 -36 34 -45 36 -24 147 -45 235 -45 69 0
79 3 100 25 15 15 35 25 53 25 16 0 64 10 106 21 86 24 140 20 166 -9 8 -10
28 -55 43 -100 47 -135 144 -254 306 -374 111 -83 268 -158 505 -240 121 -42
463 -189 602 -258 261 -132 447 -266 649 -471 195 -197 290 -329 475 -662 55
-98 117 -202 139 -231 114 -152 232 -259 356 -322 60 -30 78 -34 144 -34 203
0 442 87 745 273 63 39 143 88 177 109 35 21 66 38 70 38 5 0 22 11 38 24 41
34 28 44 -92 68 -155 30 -245 66 -363 143 -90 58 -256 219 -335 324 -35 47
-85 113 -111 146 -25 33 -87 121 -137 195 -266 396 -376 538 -588 761 -212
221 -423 311 -889 379 -118 17 -241 38 -274 46 -92 24 -273 98 -402 166 -64
33 -159 75 -210 93 -52 18 -106 41 -120 50 -25 16 -25 17 -7 29 56 38 193 53
536 61 144 4 332 13 417 21 85 9 202 19 260 24 186 17 380 52 525 98 28 8 115
42 195 74 240 97 382 192 567 380 125 126 144 150 230 293 152 256 192 374
224 674 48 455 -125 878 -462 1126 -113 83 -255 144 -421 181 -70 15 -349 27
-428 18z m489 -614 c28 -5 86 -24 129 -41 64 -27 90 -45 153 -108 143 -144
208 -330 209 -596 0 -326 -139 -660 -366 -876 -38 -36 -89 -79 -114 -96 -117
-79 -310 -157 -460 -184 -146 -27 -467 -13 -725 31 -60 10 -193 26 -295 36
-156 15 -205 15 -320 6 -248 -22 -441 -69 -665 -163 -91 -38 -170 -61 -179
-52 -15 15 94 140 400 458 105 110 256 272 335 360 79 88 190 207 248 264 120
118 465 423 616 544 251 202 578 379 769 417 59 11 205 12 265 0z m-6240 -645
c357 -34 652 -128 1091 -350 203 -102 283 -156 551 -371 270 -217 586 -503
608 -551 9 -20 8 -23 -9 -23 -11 0 -81 27 -155 60 -74 34 -163 67 -197 75 -76
16 -482 31 -1288 45 -594 11 -734 21 -890 60 -350 90 -505 195 -617 421 -75
150 -107 255 -107 354 -1 93 19 141 80 195 65 57 136 80 309 104 60 9 464 -4
624 -19z"/>
</g>
</svg>
