<?xml version="1.0" encoding="utf-8"?>
<!-- Generator: Adobe Illustrator 24.1.3, SVG Export Plug-In . SVG Version: 6.00 Build 0)  -->
<svg version="1.1" id="Layer_1" xmlns="http://www.w3.org/2000/svg" xmlns:xlink="http://www.w3.org/1999/xlink" x="0px" y="0px"
	 viewBox="0 0 110.6 97.5" style="enable-background:new 0 0 110.6 97.5;" xml:space="preserve">
<style type="text/css">
	.st0{fill:none;stroke:#BBBBBB;stroke-miterlimit:10;}
	.st1{fill:#E6E6E6;}
	.st2{fill:#CCCCCC;}
	.st3{fill:#FFFFFF;}
	.st4{fill:none;stroke:#666666;stroke-width:4;stroke-miterlimit:10;}
</style>
<desc>Created with Sketch.</desc>
<g>
	<line class="st0" x1="8" y1="55.3" x2="0" y2="55.3"/>
	<line class="st0" x1="110.6" y1="55.3" x2="102.6" y2="55.3"/>
	<line class="st0" x1="55.3" y1="0" x2="55.3" y2="8"/>
	<line class="st0" x1="88.8" y1="88.8" x2="94.4" y2="94.4"/>
	<line class="st0" x1="16.2" y1="16.2" x2="21.9" y2="21.9"/>
	<line class="st0" x1="88.8" y1="21.9" x2="94.4" y2="16.2"/>
	<line class="st0" x1="16.2" y1="94.4" x2="21.9" y2="88.8"/>
</g>
<g>
	<circle class="st1" cx="55" cy="55.5" r="41"/>
	<path class="st2" d="M26.7,27.2c15.6-15.6,40.9-15.6,56.6,0s15.6,40.9,0,56.6s-40.9,15.6-56.6,0S11.1,42.9,26.7,27.2 M25.3,25.8
		c-16.4,16.4-16.4,43,0,59.4s43,16.4,59.4,0s16.4-43,0-59.4S41.7,9.4,25.3,25.8L25.3,25.8z"/>
	<path class="st3" d="M27.4,27.9c15.2-15.2,39.9-15.2,55.2,0s15.2,39.9,0,55.2s-39.9,15.2-55.2,0S12.2,43.1,27.4,27.9 M26.7,27.2
		c-15.6,15.6-15.6,40.9,0,56.6s40.9,15.6,56.6,0s15.6-40.9,0-56.6S42.3,11.6,26.7,27.2L26.7,27.2z"/>
	<g>
		<line class="st4" x1="55" y1="15.5" x2="55" y2="43.6"/>
	</g>
</g>
</svg>
