<?xml version="1.0" encoding="utf-8"?>
<!-- Generator: Adobe Illustrator 24.1.3, SVG Export Plug-In . SVG Version: 6.00 Build 0)  -->
<svg version="1.1" id="Layer_1" xmlns="http://www.w3.org/2000/svg" xmlns:xlink="http://www.w3.org/1999/xlink" x="0px" y="0px"
	 viewBox="0 0 284 80" style="enable-background:new 0 0 284 80;" xml:space="preserve">
<style type="text/css">
	.st0{clip-path:url(#SVGID_2_);}
	.st1{fill:#33FF00;}
	.st2{clip-path:url(#SVGID_4_);}
	.st3{clip-path:url(#SVGID_6_);}
	.st4{clip-path:url(#SVGID_8_);}
	.st5{clip-path:url(#SVGID_10_);}
	.st6{clip-path:url(#SVGID_12_);}
	.st7{clip-path:url(#SVGID_14_);}
	.st8{clip-path:url(#SVGID_16_);}
	.st9{clip-path:url(#SVGID_18_);}
	.st10{clip-path:url(#SVGID_20_);}
	.st11{clip-path:url(#SVGID_22_);}
	.st12{clip-path:url(#SVGID_24_);}
	.st13{clip-path:url(#SVGID_26_);}
	.st14{clip-path:url(#SVGID_28_);}
	.st15{clip-path:url(#SVGID_30_);}
	.st16{clip-path:url(#SVGID_32_);}
	.st17{clip-path:url(#SVGID_34_);}
	.st18{clip-path:url(#SVGID_36_);}
	.st19{clip-path:url(#SVGID_38_);}
	.st20{clip-path:url(#SVGID_40_);}
	.st21{clip-path:url(#SVGID_42_);}
	.st22{clip-path:url(#SVGID_44_);}
	.st23{clip-path:url(#SVGID_46_);}
	.st24{clip-path:url(#SVGID_48_);}
</style>
<g>
	<g>
		<defs>
			<path id="SVGID_1_" d="M38,35.5l-4,17.2H14.6L26.7,0.8h20.7c3.4,0,6.5,0.2,9.3,0.5c2.8,0.3,5.2,1,7.3,2c2,1,3.6,2.4,4.8,4.2
				c1.1,1.8,1.7,4.3,1.7,7.3c0,2.8-0.5,5.5-1.5,8c-1,2.5-2.6,4.7-4.8,6.6c-2.2,1.9-5,3.4-8.5,4.5c-3.5,1.1-7.7,1.6-12.7,1.6H38z
				 M43.4,30.3c1.8,0,3.3-0.7,4.5-2c1.2-1.4,2.2-3,3.1-5c0.8-2,1.4-4,1.8-6.1c0.4-2.1,0.5-4,0.5-5.6c0-1.5-0.3-2.7-0.8-3.7
				c-0.5-1-1.7-1.5-3.5-1.5h-4l-5.7,23.9H43.4z"/>
		</defs>
		<clipPath id="SVGID_2_">
			<use xlink:href="#SVGID_1_"  style="overflow:visible;"/>
		</clipPath>
		<g class="st0">
			<g>
				<rect x="-10.3" y="0.3" class="st1" width="299.1" height="1"/>
			</g>
			<g>
				<rect x="-10.3" y="4.3" class="st1" width="299.1" height="1"/>
			</g>
			<g>
				<rect x="-10.3" y="8.3" class="st1" width="299.1" height="1"/>
			</g>
			<g>
				<rect x="-10.3" y="12.3" class="st1" width="299.1" height="1"/>
			</g>
			<g>
				<rect x="-10.3" y="16.3" class="st1" width="299.1" height="1"/>
			</g>
			<g>
				<rect x="-10.3" y="20.3" class="st1" width="299.1" height="1"/>
			</g>
			<g>
				<rect x="-10.3" y="24.3" class="st1" width="299.1" height="1"/>
			</g>
			<g>
				<rect x="-10.3" y="28.2" class="st1" width="299.1" height="1"/>
			</g>
			<g>
				<rect x="-10.3" y="32.2" class="st1" width="299.1" height="1"/>
			</g>
			<g>
				<rect x="-10.3" y="36.2" class="st1" width="299.1" height="1"/>
			</g>
			<g>
				<rect x="-10.3" y="40.2" class="st1" width="299.1" height="1"/>
			</g>
			<g>
				<rect x="-10.3" y="44.2" class="st1" width="299.1" height="1"/>
			</g>
			<g>
				<rect x="-10.3" y="48.2" class="st1" width="299.1" height="1"/>
			</g>
			<g>
				<rect x="-10.3" y="52.2" class="st1" width="299.1" height="1"/>
			</g>
		</g>
	</g>
	<g>
		<defs>
			<path id="SVGID_3_" d="M118.2,52.7H98.8l5.4-23.1h-11l-5.4,23.1H68.4L80.5,0.8H100l-5.3,22.5h10.9l5.3-22.5h19.6L118.2,52.7z"/>
		</defs>
		<clipPath id="SVGID_4_">
			<use xlink:href="#SVGID_3_"  style="overflow:visible;"/>
		</clipPath>
		<g class="st2">
			<g>
				<rect x="-10.3" y="0.3" class="st1" width="299.1" height="1"/>
			</g>
			<g>
				<rect x="-10.3" y="4.3" class="st1" width="299.1" height="1"/>
			</g>
			<g>
				<rect x="-10.3" y="8.3" class="st1" width="299.1" height="1"/>
			</g>
			<g>
				<rect x="-10.3" y="12.3" class="st1" width="299.1" height="1"/>
			</g>
			<g>
				<rect x="-10.3" y="16.3" class="st1" width="299.1" height="1"/>
			</g>
			<g>
				<rect x="-10.3" y="20.3" class="st1" width="299.1" height="1"/>
			</g>
			<g>
				<rect x="-10.3" y="24.3" class="st1" width="299.1" height="1"/>
			</g>
			<g>
				<rect x="-10.3" y="28.2" class="st1" width="299.1" height="1"/>
			</g>
			<g>
				<rect x="-10.3" y="32.2" class="st1" width="299.1" height="1"/>
			</g>
			<g>
				<rect x="-10.3" y="36.2" class="st1" width="299.1" height="1"/>
			</g>
			<g>
				<rect x="-10.3" y="40.2" class="st1" width="299.1" height="1"/>
			</g>
			<g>
				<rect x="-10.3" y="44.2" class="st1" width="299.1" height="1"/>
			</g>
			<g>
				<rect x="-10.3" y="48.2" class="st1" width="299.1" height="1"/>
			</g>
			<g>
				<rect x="-10.3" y="52.2" class="st1" width="299.1" height="1"/>
			</g>
		</g>
	</g>
	<g>
		<defs>
			<path id="SVGID_5_" d="M177.9,52.7h-21l-1.3-13H139l-6.4,13h-8.7l26.5-51.9h21.3L177.9,52.7z M142,33.7h13l-2.1-22.2L142,33.7z"
				/>
		</defs>
		<clipPath id="SVGID_6_">
			<use xlink:href="#SVGID_5_"  style="overflow:visible;"/>
		</clipPath>
		<g class="st3">
			<g>
				<rect x="-10.3" y="0.3" class="st1" width="299.1" height="1"/>
			</g>
			<g>
				<rect x="-10.3" y="4.3" class="st1" width="299.1" height="1"/>
			</g>
			<g>
				<rect x="-10.3" y="8.3" class="st1" width="299.1" height="1"/>
			</g>
			<g>
				<rect x="-10.3" y="12.3" class="st1" width="299.1" height="1"/>
			</g>
			<g>
				<rect x="-10.3" y="16.3" class="st1" width="299.1" height="1"/>
			</g>
			<g>
				<rect x="-10.3" y="20.3" class="st1" width="299.1" height="1"/>
			</g>
			<g>
				<rect x="-10.3" y="24.3" class="st1" width="299.1" height="1"/>
			</g>
			<g>
				<rect x="-10.3" y="28.2" class="st1" width="299.1" height="1"/>
			</g>
			<g>
				<rect x="-10.3" y="32.2" class="st1" width="299.1" height="1"/>
			</g>
			<g>
				<rect x="-10.3" y="36.2" class="st1" width="299.1" height="1"/>
			</g>
			<g>
				<rect x="-10.3" y="40.2" class="st1" width="299.1" height="1"/>
			</g>
			<g>
				<rect x="-10.3" y="44.2" class="st1" width="299.1" height="1"/>
			</g>
			<g>
				<rect x="-10.3" y="48.2" class="st1" width="299.1" height="1"/>
			</g>
			<g>
				<rect x="-10.3" y="52.2" class="st1" width="299.1" height="1"/>
			</g>
		</g>
	</g>
	<g>
		<defs>
			<path id="SVGID_7_" d="M216.8,15.8c0.2-0.8,0.3-1.9,0.3-3.4c0-0.8-0.1-1.6-0.2-2.4c-0.1-0.8-0.3-1.5-0.6-2.1
				c-0.3-0.6-0.7-1.1-1.3-1.5c-0.6-0.4-1.4-0.5-2.3-0.5c-1.1,0-2.1,0.2-3,0.7c-0.9,0.4-1.7,1-2.4,1.7c-0.7,0.7-1.2,1.5-1.6,2.4
				c-0.4,0.9-0.6,1.8-0.6,2.8c0,1.4,0.4,2.5,1.2,3.3c0.8,0.8,1.9,1.4,3.2,1.9c1.3,0.5,2.8,0.9,4.5,1.2c1.7,0.3,3.4,0.7,5.2,1.1
				c1.5,0.4,3,0.9,4.5,1.5c1.5,0.6,2.8,1.4,4,2.4c1.2,1,2.1,2.3,2.8,3.9c0.7,1.6,1.1,3.6,1.1,6c0,3.4-0.7,6.3-2.2,8.7
				c-1.5,2.3-3.6,4.2-6.2,5.7c-2.6,1.5-5.8,2.5-9.4,3.2c-3.6,0.7-7.6,1-11.8,1c-4.3,0-7.8-0.3-10.5-0.8c-2.7-0.5-4.9-1.1-6.4-1.7
				c-1.9-0.7-3.2-1.5-4.1-2.4l3.1-11.2h15.8c-0.1,0.5-0.1,1.2-0.2,2c-0.1,0.8-0.1,1.5-0.1,2c0,0.7,0.1,1.3,0.3,2
				c0.2,0.7,0.5,1.4,0.9,2c0.4,0.6,0.9,1.1,1.7,1.5c0.7,0.4,1.6,0.6,2.7,0.6c1.2,0,2.3-0.2,3.2-0.7c0.9-0.5,1.7-1.1,2.3-1.8
				c0.6-0.7,1.1-1.6,1.4-2.5c0.3-0.9,0.5-1.8,0.5-2.7c0-1.2-0.3-2.2-0.9-3c-0.6-0.8-1.5-1.5-2.6-2.1c-1.1-0.6-2.3-1.1-3.7-1.5
				c-1.4-0.4-2.9-0.8-4.4-1.3c-1.4-0.4-2.9-0.8-4.5-1.4c-1.6-0.5-3-1.3-4.4-2.3c-1.3-1-2.4-2.2-3.3-3.7c-0.9-1.5-1.3-3.4-1.3-5.8
				c0-3.5,1-6.4,2.9-8.8c1.9-2.4,4.4-4.3,7.4-5.8c3-1.5,6.2-2.5,9.7-3.1c3.5-0.6,6.9-0.9,10-0.9c4.2,0,7.8,0.5,10.8,1.3
				c3,0.9,5.3,1.9,6.9,3.1l-3.3,11.4H216.8z"/>
		</defs>
		<clipPath id="SVGID_8_">
			<use xlink:href="#SVGID_7_"  style="overflow:visible;"/>
		</clipPath>
		<g class="st4">
			<g>
				<rect x="-10.3" y="0.3" class="st1" width="299.1" height="1"/>
			</g>
			<g>
				<rect x="-10.3" y="4.3" class="st1" width="299.1" height="1"/>
			</g>
			<g>
				<rect x="-10.3" y="8.3" class="st1" width="299.1" height="1"/>
			</g>
			<g>
				<rect x="-10.3" y="12.3" class="st1" width="299.1" height="1"/>
			</g>
			<g>
				<rect x="-10.3" y="16.3" class="st1" width="299.1" height="1"/>
			</g>
			<g>
				<rect x="-10.3" y="20.3" class="st1" width="299.1" height="1"/>
			</g>
			<g>
				<rect x="-10.3" y="24.3" class="st1" width="299.1" height="1"/>
			</g>
			<g>
				<rect x="-10.3" y="28.2" class="st1" width="299.1" height="1"/>
			</g>
			<g>
				<rect x="-10.3" y="32.2" class="st1" width="299.1" height="1"/>
			</g>
			<g>
				<rect x="-10.3" y="36.2" class="st1" width="299.1" height="1"/>
			</g>
			<g>
				<rect x="-10.3" y="40.2" class="st1" width="299.1" height="1"/>
			</g>
			<g>
				<rect x="-10.3" y="44.2" class="st1" width="299.1" height="1"/>
			</g>
			<g>
				<rect x="-10.3" y="48.2" class="st1" width="299.1" height="1"/>
			</g>
			<g>
				<rect x="-10.3" y="52.2" class="st1" width="299.1" height="1"/>
			</g>
		</g>
	</g>
	<g>
		<defs>
			<path id="SVGID_9_" d="M246.2,0.8H284L282.6,7h-18.3l-3.8,15.8h15.3l-1.4,6.1h-15.3l-4.1,17.5h18.3l-1.3,6.3h-37.8L246.2,0.8z"/>
		</defs>
		<clipPath id="SVGID_10_">
			<use xlink:href="#SVGID_9_"  style="overflow:visible;"/>
		</clipPath>
		<g class="st5">
			<g>
				<rect x="-10.3" y="0.3" class="st1" width="299.1" height="1"/>
			</g>
			<g>
				<rect x="-10.3" y="4.3" class="st1" width="299.1" height="1"/>
			</g>
			<g>
				<rect x="-10.3" y="8.3" class="st1" width="299.1" height="1"/>
			</g>
			<g>
				<rect x="-10.3" y="12.3" class="st1" width="299.1" height="1"/>
			</g>
			<g>
				<rect x="-10.3" y="16.3" class="st1" width="299.1" height="1"/>
			</g>
			<g>
				<rect x="-10.3" y="20.3" class="st1" width="299.1" height="1"/>
			</g>
			<g>
				<rect x="-10.3" y="24.3" class="st1" width="299.1" height="1"/>
			</g>
			<g>
				<rect x="-10.3" y="28.2" class="st1" width="299.1" height="1"/>
			</g>
			<g>
				<rect x="-10.3" y="32.2" class="st1" width="299.1" height="1"/>
			</g>
			<g>
				<rect x="-10.3" y="36.2" class="st1" width="299.1" height="1"/>
			</g>
			<g>
				<rect x="-10.3" y="40.2" class="st1" width="299.1" height="1"/>
			</g>
			<g>
				<rect x="-10.3" y="44.2" class="st1" width="299.1" height="1"/>
			</g>
			<g>
				<rect x="-10.3" y="48.2" class="st1" width="299.1" height="1"/>
			</g>
			<g>
				<rect x="-10.3" y="52.2" class="st1" width="299.1" height="1"/>
			</g>
		</g>
	</g>
	<g>
		<path class="st1" d="M30.7,35.5l-4,17.2H7.3L19.4,0.8h20.7c3.4,0,6.5,0.2,9.3,0.5c2.8,0.3,5.2,1,7.3,2c2,1,3.6,2.4,4.8,4.2
			c1.1,1.8,1.7,4.3,1.7,7.3c0,2.8-0.5,5.5-1.5,8c-1,2.5-2.6,4.7-4.8,6.6c-2.2,1.9-5,3.4-8.5,4.5c-3.5,1.1-7.7,1.6-12.7,1.6H30.7z
			 M36.1,30.3c1.8,0,3.3-0.7,4.5-2c1.2-1.4,2.2-3,3.1-5c0.8-2,1.4-4,1.8-6.1c0.4-2.1,0.5-4,0.5-5.6c0-1.5-0.3-2.7-0.8-3.7
			c-0.5-1-1.7-1.5-3.5-1.5h-4L32,30.3H36.1z"/>
		<path class="st1" d="M110.9,52.7H91.5l5.4-23.1h-11l-5.4,23.1H61.1L73.2,0.8h19.5l-5.3,22.5h10.9l5.3-22.5h19.6L110.9,52.7z"/>
		<path class="st1" d="M170.6,52.7h-21l-1.3-13h-16.6l-6.4,13h-8.7l26.5-51.9h21.3L170.6,52.7z M134.7,33.7h13l-2.1-22.2L134.7,33.7
			z"/>
		<path class="st1" d="M209.5,15.8c0.2-0.8,0.3-1.9,0.3-3.4c0-0.8-0.1-1.6-0.2-2.4c-0.1-0.8-0.3-1.5-0.6-2.1
			c-0.3-0.6-0.7-1.1-1.3-1.5C207,6.1,206.3,6,205.3,6c-1.1,0-2.1,0.2-3,0.7c-0.9,0.4-1.7,1-2.4,1.7c-0.7,0.7-1.2,1.5-1.6,2.4
			c-0.4,0.9-0.6,1.8-0.6,2.8c0,1.4,0.4,2.5,1.2,3.3c0.8,0.8,1.9,1.4,3.2,1.9c1.3,0.5,2.8,0.9,4.5,1.2c1.7,0.3,3.4,0.7,5.2,1.1
			c1.5,0.4,3,0.9,4.5,1.5c1.5,0.6,2.8,1.4,4,2.4c1.2,1,2.1,2.3,2.8,3.9c0.7,1.6,1.1,3.6,1.1,6c0,3.4-0.7,6.3-2.2,8.7
			c-1.5,2.3-3.6,4.2-6.2,5.7c-2.6,1.5-5.8,2.5-9.4,3.2c-3.6,0.7-7.6,1-11.8,1c-4.3,0-7.8-0.3-10.5-0.8c-2.7-0.5-4.9-1.1-6.4-1.7
			c-1.9-0.7-3.2-1.5-4.1-2.4l3.1-11.2h15.8c-0.1,0.5-0.1,1.2-0.2,2c-0.1,0.8-0.1,1.5-0.1,2c0,0.7,0.1,1.3,0.3,2
			c0.2,0.7,0.5,1.4,0.9,2c0.4,0.6,0.9,1.1,1.7,1.5c0.7,0.4,1.6,0.6,2.7,0.6c1.2,0,2.3-0.2,3.2-0.7c0.9-0.5,1.7-1.1,2.3-1.8
			c0.6-0.7,1.1-1.6,1.4-2.5c0.3-0.9,0.5-1.8,0.5-2.7c0-1.2-0.3-2.2-0.9-3c-0.6-0.8-1.5-1.5-2.6-2.1c-1.1-0.6-2.3-1.1-3.7-1.5
			c-1.4-0.4-2.9-0.8-4.4-1.3c-1.4-0.4-2.9-0.8-4.5-1.4c-1.6-0.5-3-1.3-4.4-2.3c-1.3-1-2.4-2.2-3.3-3.7c-0.9-1.5-1.3-3.4-1.3-5.8
			c0-3.5,1-6.4,2.9-8.8c1.9-2.4,4.4-4.3,7.4-5.8c3-1.5,6.2-2.5,9.7-3.1c3.5-0.6,6.9-0.9,10-0.9c4.2,0,7.8,0.5,10.8,1.3
			c3,0.9,5.3,1.9,6.9,3.1l-3.3,11.4H209.5z"/>
		<path class="st1" d="M239,0.8h37.8L275.3,7H257l-3.8,15.8h15.3l-1.4,6.1h-15.3l-4.1,17.5H266l-1.3,6.3h-37.8L239,0.8z"/>
	</g>
	<g>
		<defs>
			<path id="SVGID_11_" d="M23.4,35.5l-4,17.2H0L12.1,0.8h20.7c3.4,0,6.5,0.2,9.3,0.5c2.8,0.3,5.2,1,7.3,2c2,1,3.6,2.4,4.8,4.2
				c1.1,1.8,1.7,4.3,1.7,7.3c0,2.8-0.5,5.5-1.5,8c-1,2.5-2.6,4.7-4.8,6.6c-2.2,1.9-5,3.4-8.5,4.5c-3.5,1.1-7.7,1.6-12.7,1.6H23.4z
				 M28.8,30.3c1.8,0,3.3-0.7,4.5-2c1.2-1.4,2.2-3,3.1-5c0.8-2,1.4-4,1.8-6.1c0.4-2.1,0.5-4,0.5-5.6c0-1.5-0.3-2.7-0.8-3.7
				c-0.5-1-1.7-1.5-3.5-1.5h-4l-5.7,23.9H28.8z"/>
		</defs>
		<clipPath id="SVGID_12_">
			<use xlink:href="#SVGID_11_"  style="overflow:visible;"/>
		</clipPath>
		<g class="st6">
			<g>
				<rect x="-10.3" y="0.3" class="st1" width="299.1" height="1"/>
			</g>
			<g>
				<rect x="-10.3" y="4.3" class="st1" width="299.1" height="1"/>
			</g>
			<g>
				<rect x="-10.3" y="8.3" class="st1" width="299.1" height="1"/>
			</g>
			<g>
				<rect x="-10.3" y="12.3" class="st1" width="299.1" height="1"/>
			</g>
			<g>
				<rect x="-10.3" y="16.3" class="st1" width="299.1" height="1"/>
			</g>
			<g>
				<rect x="-10.3" y="20.3" class="st1" width="299.1" height="1"/>
			</g>
			<g>
				<rect x="-10.3" y="24.3" class="st1" width="299.1" height="1"/>
			</g>
			<g>
				<rect x="-10.3" y="28.2" class="st1" width="299.1" height="1"/>
			</g>
			<g>
				<rect x="-10.3" y="32.2" class="st1" width="299.1" height="1"/>
			</g>
			<g>
				<rect x="-10.3" y="36.2" class="st1" width="299.1" height="1"/>
			</g>
			<g>
				<rect x="-10.3" y="40.2" class="st1" width="299.1" height="1"/>
			</g>
			<g>
				<rect x="-10.3" y="44.2" class="st1" width="299.1" height="1"/>
			</g>
			<g>
				<rect x="-10.3" y="48.2" class="st1" width="299.1" height="1"/>
			</g>
			<g>
				<rect x="-10.3" y="52.2" class="st1" width="299.1" height="1"/>
			</g>
		</g>
	</g>
	<g>
		<defs>
			<path id="SVGID_13_" d="M103.6,52.7H84.3l5.4-23.1h-11l-5.4,23.1H53.8L65.9,0.8h19.5l-5.3,22.5h10.9l5.3-22.5h19.6L103.6,52.7z"
				/>
		</defs>
		<clipPath id="SVGID_14_">
			<use xlink:href="#SVGID_13_"  style="overflow:visible;"/>
		</clipPath>
		<g class="st7">
			<g>
				<rect x="-10.3" y="0.3" class="st1" width="299.1" height="1"/>
			</g>
			<g>
				<rect x="-10.3" y="4.3" class="st1" width="299.1" height="1"/>
			</g>
			<g>
				<rect x="-10.3" y="8.3" class="st1" width="299.1" height="1"/>
			</g>
			<g>
				<rect x="-10.3" y="12.3" class="st1" width="299.1" height="1"/>
			</g>
			<g>
				<rect x="-10.3" y="16.3" class="st1" width="299.1" height="1"/>
			</g>
			<g>
				<rect x="-10.3" y="20.3" class="st1" width="299.1" height="1"/>
			</g>
			<g>
				<rect x="-10.3" y="24.3" class="st1" width="299.1" height="1"/>
			</g>
			<g>
				<rect x="-10.3" y="28.2" class="st1" width="299.1" height="1"/>
			</g>
			<g>
				<rect x="-10.3" y="32.2" class="st1" width="299.1" height="1"/>
			</g>
			<g>
				<rect x="-10.3" y="36.2" class="st1" width="299.1" height="1"/>
			</g>
			<g>
				<rect x="-10.3" y="40.2" class="st1" width="299.1" height="1"/>
			</g>
			<g>
				<rect x="-10.3" y="44.2" class="st1" width="299.1" height="1"/>
			</g>
			<g>
				<rect x="-10.3" y="48.2" class="st1" width="299.1" height="1"/>
			</g>
			<g>
				<rect x="-10.3" y="52.2" class="st1" width="299.1" height="1"/>
			</g>
		</g>
	</g>
	<g>
		<defs>
			<path id="SVGID_15_" d="M163.3,52.7h-21l-1.3-13h-16.6l-6.4,13h-8.7l26.5-51.9h21.3L163.3,52.7z M127.4,33.7h13l-2.1-22.2
				L127.4,33.7z"/>
		</defs>
		<clipPath id="SVGID_16_">
			<use xlink:href="#SVGID_15_"  style="overflow:visible;"/>
		</clipPath>
		<g class="st8">
			<g>
				<rect x="-10.3" y="0.3" class="st1" width="299.1" height="1"/>
			</g>
			<g>
				<rect x="-10.3" y="4.3" class="st1" width="299.1" height="1"/>
			</g>
			<g>
				<rect x="-10.3" y="8.3" class="st1" width="299.1" height="1"/>
			</g>
			<g>
				<rect x="-10.3" y="12.3" class="st1" width="299.1" height="1"/>
			</g>
			<g>
				<rect x="-10.3" y="16.3" class="st1" width="299.1" height="1"/>
			</g>
			<g>
				<rect x="-10.3" y="20.3" class="st1" width="299.1" height="1"/>
			</g>
			<g>
				<rect x="-10.3" y="24.3" class="st1" width="299.1" height="1"/>
			</g>
			<g>
				<rect x="-10.3" y="28.2" class="st1" width="299.1" height="1"/>
			</g>
			<g>
				<rect x="-10.3" y="32.2" class="st1" width="299.1" height="1"/>
			</g>
			<g>
				<rect x="-10.3" y="36.2" class="st1" width="299.1" height="1"/>
			</g>
			<g>
				<rect x="-10.3" y="40.2" class="st1" width="299.1" height="1"/>
			</g>
			<g>
				<rect x="-10.3" y="44.2" class="st1" width="299.1" height="1"/>
			</g>
			<g>
				<rect x="-10.3" y="48.2" class="st1" width="299.1" height="1"/>
			</g>
			<g>
				<rect x="-10.3" y="52.2" class="st1" width="299.1" height="1"/>
			</g>
		</g>
	</g>
	<g>
		<defs>
			<path id="SVGID_17_" d="M202.2,15.8c0.2-0.8,0.3-1.9,0.3-3.4c0-0.8-0.1-1.6-0.2-2.4c-0.1-0.8-0.3-1.5-0.6-2.1
				c-0.3-0.6-0.7-1.1-1.3-1.5C199.8,6.1,199,6,198,6c-1.1,0-2.1,0.2-3,0.7c-0.9,0.4-1.7,1-2.4,1.7c-0.7,0.7-1.2,1.5-1.6,2.4
				c-0.4,0.9-0.6,1.8-0.6,2.8c0,1.4,0.4,2.5,1.2,3.3c0.8,0.8,1.9,1.4,3.2,1.9c1.3,0.5,2.8,0.9,4.5,1.2c1.7,0.3,3.4,0.7,5.2,1.1
				c1.5,0.4,3,0.9,4.5,1.5c1.5,0.6,2.8,1.4,4,2.4c1.2,1,2.1,2.3,2.8,3.9c0.7,1.6,1.1,3.6,1.1,6c0,3.4-0.7,6.3-2.2,8.7
				c-1.5,2.3-3.6,4.2-6.2,5.7c-2.6,1.5-5.8,2.5-9.4,3.2c-3.6,0.7-7.6,1-11.8,1c-4.3,0-7.8-0.3-10.5-0.8c-2.7-0.5-4.9-1.1-6.4-1.7
				c-1.9-0.7-3.2-1.5-4.1-2.4l3.1-11.2h15.8c-0.1,0.5-0.1,1.2-0.2,2c-0.1,0.8-0.1,1.5-0.1,2c0,0.7,0.1,1.3,0.3,2
				c0.2,0.7,0.5,1.4,0.9,2c0.4,0.6,0.9,1.1,1.7,1.5c0.7,0.4,1.6,0.6,2.7,0.6c1.2,0,2.3-0.2,3.2-0.7c0.9-0.5,1.7-1.1,2.3-1.8
				c0.6-0.7,1.1-1.6,1.4-2.5c0.3-0.9,0.5-1.8,0.5-2.7c0-1.2-0.3-2.2-0.9-3c-0.6-0.8-1.5-1.5-2.6-2.1c-1.1-0.6-2.3-1.1-3.7-1.5
				c-1.4-0.4-2.9-0.8-4.4-1.3c-1.4-0.4-2.9-0.8-4.5-1.4c-1.6-0.5-3-1.3-4.4-2.3c-1.3-1-2.4-2.2-3.3-3.7c-0.9-1.5-1.3-3.4-1.3-5.8
				c0-3.5,1-6.4,2.9-8.8c1.9-2.4,4.4-4.3,7.4-5.8c3-1.5,6.2-2.5,9.7-3.1c3.5-0.6,6.9-0.9,10-0.9c4.2,0,7.8,0.5,10.8,1.3
				c3,0.9,5.3,1.9,6.9,3.1l-3.3,11.4H202.2z"/>
		</defs>
		<clipPath id="SVGID_18_">
			<use xlink:href="#SVGID_17_"  style="overflow:visible;"/>
		</clipPath>
		<g class="st9">
			<g>
				<rect x="-10.3" y="0.3" class="st1" width="299.1" height="1"/>
			</g>
			<g>
				<rect x="-10.3" y="4.3" class="st1" width="299.1" height="1"/>
			</g>
			<g>
				<rect x="-10.3" y="8.3" class="st1" width="299.1" height="1"/>
			</g>
			<g>
				<rect x="-10.3" y="12.3" class="st1" width="299.1" height="1"/>
			</g>
			<g>
				<rect x="-10.3" y="16.3" class="st1" width="299.1" height="1"/>
			</g>
			<g>
				<rect x="-10.3" y="20.3" class="st1" width="299.1" height="1"/>
			</g>
			<g>
				<rect x="-10.3" y="24.3" class="st1" width="299.1" height="1"/>
			</g>
			<g>
				<rect x="-10.3" y="28.2" class="st1" width="299.1" height="1"/>
			</g>
			<g>
				<rect x="-10.3" y="32.2" class="st1" width="299.1" height="1"/>
			</g>
			<g>
				<rect x="-10.3" y="36.2" class="st1" width="299.1" height="1"/>
			</g>
			<g>
				<rect x="-10.3" y="40.2" class="st1" width="299.1" height="1"/>
			</g>
			<g>
				<rect x="-10.3" y="44.2" class="st1" width="299.1" height="1"/>
			</g>
			<g>
				<rect x="-10.3" y="48.2" class="st1" width="299.1" height="1"/>
			</g>
			<g>
				<rect x="-10.3" y="52.2" class="st1" width="299.1" height="1"/>
			</g>
		</g>
	</g>
	<g>
		<defs>
			<path id="SVGID_19_" d="M231.7,0.8h37.8L268,7h-18.3l-3.8,15.8h15.3l-1.4,6.1h-15.3l-4.1,17.5h18.3l-1.3,6.3h-37.8L231.7,0.8z"/>
		</defs>
		<clipPath id="SVGID_20_">
			<use xlink:href="#SVGID_19_"  style="overflow:visible;"/>
		</clipPath>
		<g class="st10">
			<g>
				<rect x="-10.3" y="0.3" class="st1" width="299.1" height="1"/>
			</g>
			<g>
				<rect x="-10.3" y="4.3" class="st1" width="299.1" height="1"/>
			</g>
			<g>
				<rect x="-10.3" y="8.3" class="st1" width="299.1" height="1"/>
			</g>
			<g>
				<rect x="-10.3" y="12.3" class="st1" width="299.1" height="1"/>
			</g>
			<g>
				<rect x="-10.3" y="16.3" class="st1" width="299.1" height="1"/>
			</g>
			<g>
				<rect x="-10.3" y="20.3" class="st1" width="299.1" height="1"/>
			</g>
			<g>
				<rect x="-10.3" y="24.3" class="st1" width="299.1" height="1"/>
			</g>
			<g>
				<rect x="-10.3" y="28.2" class="st1" width="299.1" height="1"/>
			</g>
			<g>
				<rect x="-10.3" y="32.2" class="st1" width="299.1" height="1"/>
			</g>
			<g>
				<rect x="-10.3" y="36.2" class="st1" width="299.1" height="1"/>
			</g>
			<g>
				<rect x="-10.3" y="40.2" class="st1" width="299.1" height="1"/>
			</g>
			<g>
				<rect x="-10.3" y="44.2" class="st1" width="299.1" height="1"/>
			</g>
			<g>
				<rect x="-10.3" y="48.2" class="st1" width="299.1" height="1"/>
			</g>
			<g>
				<rect x="-10.3" y="52.2" class="st1" width="299.1" height="1"/>
			</g>
		</g>
	</g>
	<g>
		<defs>
			<path id="SVGID_21_" d="M14.7,79.6V61h9.1l12.1,9.9h0.2l12-9.9h9.2v18.7h-9.4V68.3h-0.2l-9.4,8h-4.7l-9.3-8h-0.2v11.3H14.7z"/>
		</defs>
		<clipPath id="SVGID_22_">
			<use xlink:href="#SVGID_21_"  style="overflow:visible;"/>
		</clipPath>
		<g class="st11">
			<g>
				<rect x="0" y="61.2" class="st1" width="275.1" height="1"/>
			</g>
			<g>
				<rect x="-0.1" y="65.6" class="st1" width="275.1" height="1"/>
			</g>
			<g>
				<rect x="-0.2" y="70" class="st1" width="275.1" height="1"/>
			</g>
			<g>
				<rect x="-0.3" y="74.4" class="st1" width="275.1" height="1"/>
			</g>
			<g>
				<rect x="-0.4" y="78.9" class="st1" width="275.1" height="1"/>
			</g>
		</g>
	</g>
	<g>
		<defs>
			<path id="SVGID_23_" d="M61.9,79.6L76.7,61h7.9l14.7,18.7h-9.5l-2.8-4H74.2l-2.8,4H61.9z M85.3,73.1l-4.6-6.8h-0.2l-4.6,6.8H85.3
				z"/>
		</defs>
		<clipPath id="SVGID_24_">
			<use xlink:href="#SVGID_23_"  style="overflow:visible;"/>
		</clipPath>
		<g class="st12">
			<g>
				<rect x="0" y="61.2" class="st1" width="275.1" height="1"/>
			</g>
			<g>
				<rect x="-0.1" y="65.6" class="st1" width="275.1" height="1"/>
			</g>
			<g>
				<rect x="-0.2" y="70" class="st1" width="275.1" height="1"/>
			</g>
			<g>
				<rect x="-0.3" y="74.4" class="st1" width="275.1" height="1"/>
			</g>
			<g>
				<rect x="-0.4" y="78.9" class="st1" width="275.1" height="1"/>
			</g>
		</g>
	</g>
	<g>
		<defs>
			<path id="SVGID_25_" d="M133.9,74.3v1.2c0,0.6-0.4,1.1-1.2,1.6c-0.8,0.5-1.8,1-3.2,1.4c-1.4,0.4-3,0.7-4.8,1
				c-1.8,0.2-3.8,0.4-5.9,0.4c-1.8,0-3.6-0.1-5.5-0.2c-1.9-0.1-3.5-0.4-5-0.7c-1.5-0.3-2.7-0.8-3.7-1.3c-1-0.5-1.4-1.3-1.4-2.1V65.1
				c0-0.6,0.4-1.2,1.1-1.7c0.7-0.5,1.8-1,3.1-1.4c1.4-0.4,3-0.7,4.9-0.9c1.9-0.2,4-0.3,6.3-0.3c4.4,0,8.1,0.4,10.8,1.2
				c1.4,0.4,2.4,0.9,3.2,1.4c0.8,0.5,1.2,1.1,1.2,1.8v1h-9.5v-0.9c0-0.5-0.5-1-1.6-1.4c-1.1-0.4-2.5-0.6-4.3-0.6
				c-2.3,0-3.9,0.2-4.7,0.6c-0.8,0.4-1.2,0.9-1.2,1.6v9.5c0,0.5,0.4,1,1.3,1.4c0.8,0.4,2.3,0.6,4.5,0.6c0.6,0,1.3,0,2-0.1
				c0.7-0.1,1.4-0.2,2-0.3c0.6-0.1,1-0.3,1.4-0.6c0.4-0.2,0.6-0.5,0.6-0.9v-0.9H133.9z"/>
		</defs>
		<clipPath id="SVGID_26_">
			<use xlink:href="#SVGID_25_"  style="overflow:visible;"/>
		</clipPath>
		<g class="st13">
			<g>
				<rect x="0" y="61.2" class="st1" width="275.1" height="1"/>
			</g>
			<g>
				<rect x="-0.1" y="65.6" class="st1" width="275.1" height="1"/>
			</g>
			<g>
				<rect x="-0.2" y="70" class="st1" width="275.1" height="1"/>
			</g>
			<g>
				<rect x="-0.3" y="74.4" class="st1" width="275.1" height="1"/>
			</g>
			<g>
				<rect x="-0.4" y="78.9" class="st1" width="275.1" height="1"/>
			</g>
		</g>
	</g>
	<g>
		<defs>
			<path id="SVGID_27_" d="M141.6,79.6V61h9.5v8h11.7v-8h9.4v18.7h-9.4v-8.3H151v8.3H141.6z"/>
		</defs>
		<clipPath id="SVGID_28_">
			<use xlink:href="#SVGID_27_"  style="overflow:visible;"/>
		</clipPath>
		<g class="st14">
			<g>
				<rect x="0" y="61.2" class="st1" width="275.1" height="1"/>
			</g>
			<g>
				<rect x="-0.1" y="65.6" class="st1" width="275.1" height="1"/>
			</g>
			<g>
				<rect x="-0.2" y="70" class="st1" width="275.1" height="1"/>
			</g>
			<g>
				<rect x="-0.3" y="74.4" class="st1" width="275.1" height="1"/>
			</g>
			<g>
				<rect x="-0.4" y="78.9" class="st1" width="275.1" height="1"/>
			</g>
		</g>
	</g>
	<g>
		<defs>
			<path id="SVGID_29_" d="M181.3,79.6V61h9.4v18.7H181.3z"/>
		</defs>
		<clipPath id="SVGID_30_">
			<use xlink:href="#SVGID_29_"  style="overflow:visible;"/>
		</clipPath>
		<g class="st15">
			<g>
				<rect x="0" y="61.2" class="st1" width="275.1" height="1"/>
			</g>
			<g>
				<rect x="-0.1" y="65.6" class="st1" width="275.1" height="1"/>
			</g>
			<g>
				<rect x="-0.2" y="70" class="st1" width="275.1" height="1"/>
			</g>
			<g>
				<rect x="-0.3" y="74.4" class="st1" width="275.1" height="1"/>
			</g>
			<g>
				<rect x="-0.4" y="78.9" class="st1" width="275.1" height="1"/>
			</g>
		</g>
	</g>
	<g>
		<defs>
			<path id="SVGID_31_" d="M199.6,79.6V61h9.1l14.3,11.2h0.2V61h9.4v18.7h-8.9l-14.5-11.2H209v11.2H199.6z"/>
		</defs>
		<clipPath id="SVGID_32_">
			<use xlink:href="#SVGID_31_"  style="overflow:visible;"/>
		</clipPath>
		<g class="st16">
			<g>
				<rect x="0" y="61.2" class="st1" width="275.1" height="1"/>
			</g>
			<g>
				<rect x="-0.1" y="65.6" class="st1" width="275.1" height="1"/>
			</g>
			<g>
				<rect x="-0.2" y="70" class="st1" width="275.1" height="1"/>
			</g>
			<g>
				<rect x="-0.3" y="74.4" class="st1" width="275.1" height="1"/>
			</g>
			<g>
				<rect x="-0.4" y="78.9" class="st1" width="275.1" height="1"/>
			</g>
		</g>
	</g>
	<g>
		<defs>
			<path id="SVGID_33_" d="M241.1,79.6V61h28.2v2.5h-18.7v5.5h16.3v2.5h-16.3v5.5h18.7v2.7H241.1z"/>
		</defs>
		<clipPath id="SVGID_34_">
			<use xlink:href="#SVGID_33_"  style="overflow:visible;"/>
		</clipPath>
		<g class="st17">
			<g>
				<rect x="0" y="61.2" class="st1" width="275.1" height="1"/>
			</g>
			<g>
				<rect x="-0.1" y="65.6" class="st1" width="275.1" height="1"/>
			</g>
			<g>
				<rect x="-0.2" y="70" class="st1" width="275.1" height="1"/>
			</g>
			<g>
				<rect x="-0.3" y="74.4" class="st1" width="275.1" height="1"/>
			</g>
			<g>
				<rect x="-0.4" y="78.9" class="st1" width="275.1" height="1"/>
			</g>
		</g>
	</g>
	<g>
		<defs>
			<path id="SVGID_35_" d="M5,79.6V61h9.1l12.1,9.9h0.2l12-9.9h9.2v18.7h-9.4V68.3H38l-9.4,8h-4.7l-9.3-8h-0.2v11.3H5z"/>
		</defs>
		<clipPath id="SVGID_36_">
			<use xlink:href="#SVGID_35_"  style="overflow:visible;"/>
		</clipPath>
		<g class="st18">
			<g>
				<rect x="0" y="61.2" class="st1" width="275.1" height="1"/>
			</g>
			<g>
				<rect x="-0.1" y="65.6" class="st1" width="275.1" height="1"/>
			</g>
			<g>
				<rect x="-0.2" y="70" class="st1" width="275.1" height="1"/>
			</g>
			<g>
				<rect x="-0.3" y="74.4" class="st1" width="275.1" height="1"/>
			</g>
			<g>
				<rect x="-0.4" y="78.9" class="st1" width="275.1" height="1"/>
			</g>
		</g>
	</g>
	<g>
		<defs>
			<path id="SVGID_37_" d="M52.2,79.6L67,61h7.9l14.7,18.7h-9.5l-2.8-4H64.5l-2.8,4H52.2z M75.6,73.1l-4.6-6.8h-0.2l-4.6,6.8H75.6z"
				/>
		</defs>
		<clipPath id="SVGID_38_">
			<use xlink:href="#SVGID_37_"  style="overflow:visible;"/>
		</clipPath>
		<g class="st19">
			<g>
				<rect x="0" y="61.2" class="st1" width="275.1" height="1"/>
			</g>
			<g>
				<rect x="-0.1" y="65.6" class="st1" width="275.1" height="1"/>
			</g>
			<g>
				<rect x="-0.2" y="70" class="st1" width="275.1" height="1"/>
			</g>
			<g>
				<rect x="-0.3" y="74.4" class="st1" width="275.1" height="1"/>
			</g>
			<g>
				<rect x="-0.4" y="78.9" class="st1" width="275.1" height="1"/>
			</g>
		</g>
	</g>
	<g>
		<defs>
			<path id="SVGID_39_" d="M124.2,74.3v1.2c0,0.6-0.4,1.1-1.2,1.6c-0.8,0.5-1.8,1-3.2,1.4c-1.4,0.4-3,0.7-4.8,1
				c-1.8,0.2-3.8,0.4-5.9,0.4c-1.8,0-3.6-0.1-5.5-0.2c-1.9-0.1-3.5-0.4-5-0.7c-1.5-0.3-2.7-0.8-3.7-1.3c-1-0.5-1.4-1.3-1.4-2.1V65.1
				c0-0.6,0.4-1.2,1.1-1.7c0.7-0.5,1.8-1,3.1-1.4c1.4-0.4,3-0.7,4.9-0.9c1.9-0.2,4-0.3,6.3-0.3c4.4,0,8.1,0.4,10.8,1.2
				c1.4,0.4,2.4,0.9,3.2,1.4c0.8,0.5,1.2,1.1,1.2,1.8v1h-9.5v-0.9c0-0.5-0.5-1-1.6-1.4c-1.1-0.4-2.5-0.6-4.3-0.6
				c-2.3,0-3.9,0.2-4.7,0.6c-0.8,0.4-1.2,0.9-1.2,1.6v9.5c0,0.5,0.4,1,1.3,1.4c0.8,0.4,2.3,0.6,4.5,0.6c0.6,0,1.3,0,2-0.1
				c0.7-0.1,1.4-0.2,2-0.3c0.6-0.1,1-0.3,1.4-0.6c0.4-0.2,0.6-0.5,0.6-0.9v-0.9H124.2z"/>
		</defs>
		<clipPath id="SVGID_40_">
			<use xlink:href="#SVGID_39_"  style="overflow:visible;"/>
		</clipPath>
		<g class="st20">
			<g>
				<rect x="0" y="61.2" class="st1" width="275.1" height="1"/>
			</g>
			<g>
				<rect x="-0.1" y="65.6" class="st1" width="275.1" height="1"/>
			</g>
			<g>
				<rect x="-0.2" y="70" class="st1" width="275.1" height="1"/>
			</g>
			<g>
				<rect x="-0.3" y="74.4" class="st1" width="275.1" height="1"/>
			</g>
			<g>
				<rect x="-0.4" y="78.9" class="st1" width="275.1" height="1"/>
			</g>
		</g>
	</g>
	<g>
		<defs>
			<path id="SVGID_41_" d="M131.9,79.6V61h9.5v8H153v-8h9.4v18.7H153v-8.3h-11.7v8.3H131.9z"/>
		</defs>
		<clipPath id="SVGID_42_">
			<use xlink:href="#SVGID_41_"  style="overflow:visible;"/>
		</clipPath>
		<g class="st21">
			<g>
				<rect x="0" y="61.2" class="st1" width="275.1" height="1"/>
			</g>
			<g>
				<rect x="-0.1" y="65.6" class="st1" width="275.1" height="1"/>
			</g>
			<g>
				<rect x="-0.2" y="70" class="st1" width="275.1" height="1"/>
			</g>
			<g>
				<rect x="-0.3" y="74.4" class="st1" width="275.1" height="1"/>
			</g>
			<g>
				<rect x="-0.4" y="78.9" class="st1" width="275.1" height="1"/>
			</g>
		</g>
	</g>
	<g>
		<defs>
			<path id="SVGID_43_" d="M171.6,79.6V61h9.4v18.7H171.6z"/>
		</defs>
		<clipPath id="SVGID_44_">
			<use xlink:href="#SVGID_43_"  style="overflow:visible;"/>
		</clipPath>
		<g class="st22">
			<g>
				<rect x="0" y="61.2" class="st1" width="275.1" height="1"/>
			</g>
			<g>
				<rect x="-0.1" y="65.6" class="st1" width="275.1" height="1"/>
			</g>
			<g>
				<rect x="-0.2" y="70" class="st1" width="275.1" height="1"/>
			</g>
			<g>
				<rect x="-0.3" y="74.4" class="st1" width="275.1" height="1"/>
			</g>
			<g>
				<rect x="-0.4" y="78.9" class="st1" width="275.1" height="1"/>
			</g>
		</g>
	</g>
	<g>
		<defs>
			<path id="SVGID_45_" d="M189.9,79.6V61h9.1l14.3,11.2h0.2V61h9.4v18.7H214l-14.5-11.2h-0.2v11.2H189.9z"/>
		</defs>
		<clipPath id="SVGID_46_">
			<use xlink:href="#SVGID_45_"  style="overflow:visible;"/>
		</clipPath>
		<g class="st23">
			<g>
				<rect x="0" y="61.2" class="st1" width="275.1" height="1"/>
			</g>
			<g>
				<rect x="-0.1" y="65.6" class="st1" width="275.1" height="1"/>
			</g>
			<g>
				<rect x="-0.2" y="70" class="st1" width="275.1" height="1"/>
			</g>
			<g>
				<rect x="-0.3" y="74.4" class="st1" width="275.1" height="1"/>
			</g>
			<g>
				<rect x="-0.4" y="78.9" class="st1" width="275.1" height="1"/>
			</g>
		</g>
	</g>
	<g>
		<defs>
			<path id="SVGID_47_" d="M231.4,79.6V61h28.2v2.5h-18.7v5.5h16.3v2.5h-16.3v5.5h18.7v2.7H231.4z"/>
		</defs>
		<clipPath id="SVGID_48_">
			<use xlink:href="#SVGID_47_"  style="overflow:visible;"/>
		</clipPath>
		<g class="st24">
			<g>
				<rect x="0" y="61.2" class="st1" width="275.1" height="1"/>
			</g>
			<g>
				<rect x="-0.1" y="65.6" class="st1" width="275.1" height="1"/>
			</g>
			<g>
				<rect x="-0.2" y="70" class="st1" width="275.1" height="1"/>
			</g>
			<g>
				<rect x="-0.3" y="74.4" class="st1" width="275.1" height="1"/>
			</g>
			<g>
				<rect x="-0.4" y="78.9" class="st1" width="275.1" height="1"/>
			</g>
		</g>
	</g>
	<g>
		<path class="st1" d="M9.8,79.8V61.2h9.1L31,71.1h0.2l12-9.9h9.2v18.7H43V68.5h-0.2l-9.4,8h-4.7l-9.3-8h-0.2v11.3H9.8z"/>
		<path class="st1" d="M57.1,79.8l14.7-18.7h7.9l14.7,18.7H85l-2.8-4H69.3l-2.8,4H57.1z M80.4,73.3l-4.6-6.8h-0.2L71,73.3H80.4z"/>
		<path class="st1" d="M129.1,74.5v1.2c0,0.6-0.4,1.1-1.2,1.6c-0.8,0.5-1.8,1-3.2,1.4c-1.4,0.4-3,0.7-4.8,1
			c-1.8,0.2-3.8,0.4-5.9,0.4c-1.8,0-3.6-0.1-5.5-0.2c-1.9-0.1-3.5-0.4-5-0.7c-1.5-0.3-2.7-0.8-3.7-1.3c-1-0.5-1.4-1.3-1.4-2.1V65.3
			c0-0.6,0.4-1.2,1.1-1.7c0.7-0.5,1.8-1,3.1-1.4c1.4-0.4,3-0.7,4.9-0.9c1.9-0.2,4-0.3,6.3-0.3c4.4,0,8.1,0.4,10.8,1.2
			c1.4,0.4,2.4,0.9,3.2,1.4c0.8,0.5,1.2,1.1,1.2,1.8v1h-9.5v-0.9c0-0.5-0.5-1-1.6-1.4c-1.1-0.4-2.5-0.6-4.3-0.6
			c-2.3,0-3.9,0.2-4.7,0.6c-0.8,0.4-1.2,0.9-1.2,1.6v9.5c0,0.5,0.4,1,1.3,1.4c0.8,0.4,2.3,0.6,4.5,0.6c0.6,0,1.3,0,2-0.1
			c0.7-0.1,1.4-0.2,2-0.3c0.6-0.1,1-0.3,1.4-0.6c0.4-0.2,0.6-0.5,0.6-0.9v-0.9H129.1z"/>
		<path class="st1" d="M136.7,79.8V61.2h9.5v8h11.7v-8h9.4v18.7h-9.4v-8.3h-11.7v8.3H136.7z"/>
		<path class="st1" d="M176.5,79.8V61.2h9.4v18.7H176.5z"/>
		<path class="st1" d="M194.7,79.8V61.2h9.1l14.3,11.2h0.2V61.2h9.4v18.7h-8.9l-14.5-11.2h-0.2v11.2H194.7z"/>
		<path class="st1" d="M236.2,79.8V61.2h28.2v2.5h-18.7v5.5H262v2.5h-16.3v5.5h18.7v2.7H236.2z"/>
	</g>
</g>
</svg>
