<?xml version="1.0" encoding="utf-8"?>
<svg version="1.1" id="Layer_1" xmlns="http://www.w3.org/2000/svg" xmlns:xlink="http://www.w3.org/1999/xlink" x="0px" y="0px"
	 viewBox="-6 -6 296 92" xml:space="preserve">
<defs>
	<linearGradient id="aeroLogoGrad" x1="6" y1="0" x2="278" y2="0" gradientUnits="userSpaceOnUse">
		<stop offset="0" stop-color="#4aa9ee" stop-opacity="0.5"/>
		<stop offset="0.5" stop-color="#46d3bd" stop-opacity="0.5"/>
		<stop offset="1" stop-color="#9bdf55" stop-opacity="0.5"/>
	</linearGradient>
	<linearGradient id="aeroLogoGradFront" x1="6" y1="0" x2="278" y2="0" gradientUnits="userSpaceOnUse">
		<stop offset="0" stop-color="#3b9ce2" stop-opacity="0.66"/>
		<stop offset="0.5" stop-color="#2ec7a9" stop-opacity="0.66"/>
		<stop offset="1" stop-color="#88d540" stop-opacity="0.66"/>
	</linearGradient>
	<linearGradient id="aeroLogoSheen" x1="0" y1="0" x2="0" y2="1" gradientUnits="objectBoundingBox">
		<stop offset="0" stop-color="#ffffff" stop-opacity="0"/>
		<stop offset="0.38" stop-color="#ffffff" stop-opacity="0"/>
		<stop offset="0.5" stop-color="#ffffff" stop-opacity="0.36"/>
		<stop offset="0.62" stop-color="#ffffff" stop-opacity="0"/>
		<stop offset="0.85" stop-color="#1d7fb8" stop-opacity="0"/>
		<stop offset="1" stop-color="#1d7fb8" stop-opacity="0.13"/>
	</linearGradient>
	<filter id="aeroGhost" x="-60%" y="-60%" width="220%" height="220%">
		<feMorphology in="SourceAlpha" operator="dilate" radius="1" result="d"/>
		<feGaussianBlur in="d" stdDeviation="2.5" result="b"/>
		<feFlood flood-color="#ffffff" flood-opacity="1"/>
		<feComposite in2="b" operator="in" result="bloom"/>
		<feMerge>
			<feMergeNode in="bloom"/>
			<feMergeNode in="bloom"/>
			<feMergeNode in="bloom"/>
			<feMergeNode in="SourceGraphic"/>
		</feMerge>
	</filter>
	<path id="SVGID_1_" d="M38,35.5l-4,17.2H14.6L26.7,0.8h20.7c3.4,0,6.5,0.2,9.3,0.5c2.8,0.3,5.2,1,7.3,2c2,1,3.6,2.4,4.8,4.2
				c1.1,1.8,1.7,4.3,1.7,7.3c0,2.8-0.5,5.5-1.5,8c-1,2.5-2.6,4.7-4.8,6.6c-2.2,1.9-5,3.4-8.5,4.5c-3.5,1.1-7.7,1.6-12.7,1.6H38z
				 M43.4,30.3c1.8,0,3.3-0.7,4.5-2c1.2-1.4,2.2-3,3.1-5c0.8-2,1.4-4,1.8-6.1c0.4-2.1,0.5-4,0.5-5.6c0-1.5-0.3-2.7-0.8-3.7
				c-0.5-1-1.7-1.5-3.5-1.5h-4l-5.7,23.9H43.4z"/>
	<path id="SVGID_3_" d="M118.2,52.7H98.8l5.4-23.1h-11l-5.4,23.1H68.4L80.5,0.8H100l-5.3,22.5h10.9l5.3-22.5h19.6L118.2,52.7z"/>
	<path id="SVGID_5_" d="M177.9,52.7h-21l-1.3-13H139l-6.4,13h-8.7l26.5-51.9h21.3L177.9,52.7z M142,33.7h13l-2.1-22.2L142,33.7z"
				/>
	<path id="SVGID_7_" d="M216.8,15.8c0.2-0.8,0.3-1.9,0.3-3.4c0-0.8-0.1-1.6-0.2-2.4c-0.1-0.8-0.3-1.5-0.6-2.1
				c-0.3-0.6-0.7-1.1-1.3-1.5c-0.6-0.4-1.4-0.5-2.3-0.5c-1.1,0-2.1,0.2-3,0.7c-0.9,0.4-1.7,1-2.4,1.7c-0.7,0.7-1.2,1.5-1.6,2.4
				c-0.4,0.9-0.6,1.8-0.6,2.8c0,1.4,0.4,2.5,1.2,3.3c0.8,0.8,1.9,1.4,3.2,1.9c1.3,0.5,2.8,0.9,4.5,1.2c1.7,0.3,3.4,0.7,5.2,1.1
				c1.5,0.4,3,0.9,4.5,1.5c1.5,0.6,2.8,1.4,4,2.4c1.2,1,2.1,2.3,2.8,3.9c0.7,1.6,1.1,3.6,1.1,6c0,3.4-0.7,6.3-2.2,8.7
				c-1.5,2.3-3.6,4.2-6.2,5.7c-2.6,1.5-5.8,2.5-9.4,3.2c-3.6,0.7-7.6,1-11.8,1c-4.3,0-7.8-0.3-10.5-0.8c-2.7-0.5-4.9-1.1-6.4-1.7
				c-1.9-0.7-3.2-1.5-4.1-2.4l3.1-11.2h15.8c-0.1,0.5-0.1,1.2-0.2,2c-0.1,0.8-0.1,1.5-0.1,2c0,0.7,0.1,1.3,0.3,2
				c0.2,0.7,0.5,1.4,0.9,2c0.4,0.6,0.9,1.1,1.7,1.5c0.7,0.4,1.6,0.6,2.7,0.6c1.2,0,2.3-0.2,3.2-0.7c0.9-0.5,1.7-1.1,2.3-1.8
				c0.6-0.7,1.1-1.6,1.4-2.5c0.3-0.9,0.5-1.8,0.5-2.7c0-1.2-0.3-2.2-0.9-3c-0.6-0.8-1.5-1.5-2.6-2.1c-1.1-0.6-2.3-1.1-3.7-1.5
				c-1.4-0.4-2.9-0.8-4.4-1.3c-1.4-0.4-2.9-0.8-4.5-1.4c-1.6-0.5-3-1.3-4.4-2.3c-1.3-1-2.4-2.2-3.3-3.7c-0.9-1.5-1.3-3.4-1.3-5.8
				c0-3.5,1-6.4,2.9-8.8c1.9-2.4,4.4-4.3,7.4-5.8c3-1.5,6.2-2.5,9.7-3.1c3.5-0.6,6.9-0.9,10-0.9c4.2,0,7.8,0.5,10.8,1.3
				c3,0.9,5.3,1.9,6.9,3.1l-3.3,11.4H216.8z"/>
	<path id="SVGID_9_" d="M246.2,0.8H284L282.6,7h-18.3l-3.8,15.8h15.3l-1.4,6.1h-15.3l-4.1,17.5h18.3l-1.3,6.3h-37.8L246.2,0.8z"/>
	<path id="SVGID_21_" d="M14.7,79.6V61h9.1l12.1,9.9h0.2l12-9.9h9.2v18.7h-9.4V68.3h-0.2l-9.4,8h-4.7l-9.3-8h-0.2v11.3H14.7z"/>
	<path id="SVGID_23_" d="M61.9,79.6L76.7,61h7.9l14.7,18.7h-9.5l-2.8-4H74.2l-2.8,4H61.9z M85.3,73.1l-4.6-6.8h-0.2l-4.6,6.8H85.3
				z"/>
	<path id="SVGID_25_" d="M133.9,74.3v1.2c0,0.6-0.4,1.1-1.2,1.6c-0.8,0.5-1.8,1-3.2,1.4c-1.4,0.4-3,0.7-4.8,1
				c-1.8,0.2-3.8,0.4-5.9,0.4c-1.8,0-3.6-0.1-5.5-0.2c-1.9-0.1-3.5-0.4-5-0.7c-1.5-0.3-2.7-0.8-3.7-1.3c-1-0.5-1.4-1.3-1.4-2.1V65.1
				c0-0.6,0.4-1.2,1.1-1.7c0.7-0.5,1.8-1,3.1-1.4c1.4-0.4,3-0.7,4.9-0.9c1.9-0.2,4-0.3,6.3-0.3c4.4,0,8.1,0.4,10.8,1.2
				c1.4,0.4,2.4,0.9,3.2,1.4c0.8,0.5,1.2,1.1,1.2,1.8v1h-9.5v-0.9c0-0.5-0.5-1-1.6-1.4c-1.1-0.4-2.5-0.6-4.3-0.6
				c-2.3,0-3.9,0.2-4.7,0.6c-0.8,0.4-1.2,0.9-1.2,1.6v9.5c0,0.5,0.4,1,1.3,1.4c0.8,0.4,2.3,0.6,4.5,0.6c0.6,0,1.3,0,2-0.1
				c0.7-0.1,1.4-0.2,2-0.3c0.6-0.1,1-0.3,1.4-0.6c0.4-0.2,0.6-0.5,0.6-0.9v-0.9H133.9z"/>
	<path id="SVGID_27_" d="M141.6,79.6V61h9.5v8h11.7v-8h9.4v18.7h-9.4v-8.3H151v8.3H141.6z"/>
	<path id="SVGID_29_" d="M181.3,79.6V61h9.4v18.7H181.3z"/>
	<path id="SVGID_31_" d="M199.6,79.6V61h9.1l14.3,11.2h0.2V61h9.4v18.7h-8.9l-14.5-11.2H209v11.2H199.6z"/>
	<path id="SVGID_33_" d="M241.1,79.6V61h28.2v2.5h-18.7v5.5h16.3v2.5h-16.3v5.5h18.7v2.7H241.1z"/>
</defs>
<!-- BACK = drop shadow: an offset copy carrying the big soft white bloom
     (aeroGhost) and NO crisp outline, so it reads as a glowy frosted drop shadow
     behind the type. translate = shadow offset; opacity = shadow strength. -->
<g transform="translate(8,0)" opacity="0.93" fill="url(#aeroLogoGrad)" filter="url(#aeroGhost)">
	<use xlink:href="#SVGID_1_"/>
	<use xlink:href="#SVGID_3_"/>
	<use xlink:href="#SVGID_5_"/>
	<use xlink:href="#SVGID_7_"/>
	<use xlink:href="#SVGID_9_"/>
	<use xlink:href="#SVGID_21_"/>
	<use xlink:href="#SVGID_23_"/>
	<use xlink:href="#SVGID_25_"/>
	<use xlink:href="#SVGID_27_"/>
	<use xlink:href="#SVGID_29_"/>
	<use xlink:href="#SVGID_31_"/>
	<use xlink:href="#SVGID_33_"/>
</g>
<!-- FRONT = crisp white outline only (no glow filter), sitting on the shadow. -->
<g fill="url(#aeroLogoGradFront)" stroke="#ffffff" stroke-opacity="0.95" stroke-width="1" stroke-linejoin="round">
	<use xlink:href="#SVGID_1_"/>
	<use xlink:href="#SVGID_3_"/>
	<use xlink:href="#SVGID_5_"/>
	<use xlink:href="#SVGID_7_"/>
	<use xlink:href="#SVGID_9_"/>
	<use xlink:href="#SVGID_21_"/>
	<use xlink:href="#SVGID_23_"/>
	<use xlink:href="#SVGID_25_"/>
	<use xlink:href="#SVGID_27_"/>
	<use xlink:href="#SVGID_29_"/>
	<use xlink:href="#SVGID_31_"/>
	<use xlink:href="#SVGID_33_"/>
</g>
<!-- glassy overlay: per-glyph top sheen + faint bottom inner-shadow, painted
     inside the letters only (no stroke) so the front face reads as glass. -->
<g fill="url(#aeroLogoSheen)">
	<use xlink:href="#SVGID_1_"/>
	<use xlink:href="#SVGID_3_"/>
	<use xlink:href="#SVGID_5_"/>
	<use xlink:href="#SVGID_7_"/>
	<use xlink:href="#SVGID_9_"/>
	<use xlink:href="#SVGID_21_"/>
	<use xlink:href="#SVGID_23_"/>
	<use xlink:href="#SVGID_25_"/>
	<use xlink:href="#SVGID_27_"/>
	<use xlink:href="#SVGID_29_"/>
	<use xlink:href="#SVGID_31_"/>
	<use xlink:href="#SVGID_33_"/>
</g>
</svg>
