<?xml version="1.0" encoding="utf-8"?>
<!-- Generator: Adobe Illustrator 24.1.3, SVG Export Plug-In . SVG Version: 6.00 Build 0)  -->
<svg version="1.1" id="Layer_1" xmlns="http://www.w3.org/2000/svg" xmlns:xlink="http://www.w3.org/1999/xlink" x="0px" y="0px"
	 viewBox="0 0 73 64" style="enable-background:new 0 0 73 64;" xml:space="preserve">
<style type="text/css">
	.st0{fill:#FF00FF;}
</style>
<g>
	<path class="st0" d="M9,5v35v5h5h4v14H5V5H9 M14,0H0v64h23V40h-9V0L14,0z"/>
</g>
<g>
	<path class="st0" d="M27,5v28h-6V5H27 M32,0H16v38h16V0L32,0z"/>
</g>
<g>
	<path class="st0" d="M43,45v14H30V45h4h5H43 M39,0h-5v40h-9v24h23V40h-9V0L39,0z"/>
</g>
<g>
	<path class="st0" d="M68,5v54H55V45h4h5v-5V5H68 M73,0H59v40h-9v24h23V0L73,0z"/>
</g>
</svg>
