<?xml version="1.0" encoding="utf-8"?>
<!-- Generator: Adobe Illustrator 24.1.3, SVG Export Plug-In . SVG Version: 6.00 Build 0)  -->
<svg version="1.1" id="Layer_1" xmlns="http://www.w3.org/2000/svg" xmlns:xlink="http://www.w3.org/1999/xlink" x="0px" y="0px"
	 viewBox="0 0 239.2 229.5" style="enable-background:new 0 0 239.2 229.5;" xml:space="preserve">
<style type="text/css">
	.st0{fill:#4683C4;}
</style>
<g>
	<g>
		<g>
			<g>
				<path class="st0" d="M115.4,8.2v0.7c0,0.4-0.1,0.7-0.2,1c-0.1,0.3-0.3,0.6-0.6,0.8c-0.2,0.2-0.5,0.4-0.8,0.6
					c-0.3,0.1-0.7,0.2-1,0.2c-0.3,0-0.6,0-0.9-0.1c-0.3-0.1-0.6-0.2-0.9-0.4c-0.3-0.2-0.5-0.5-0.6-0.8c-0.2-0.3-0.2-0.8-0.2-1.3V2.6
					c0-0.4,0.1-0.7,0.2-1s0.3-0.6,0.5-0.8c0.2-0.2,0.5-0.4,0.8-0.6c0.3-0.1,0.7-0.2,1.1-0.2c0.8,0,1.4,0.3,1.9,0.8
					c0.2,0.2,0.4,0.5,0.6,0.9c0.1,0.3,0.2,0.7,0.2,1.1v0.6h-1.6V2.8c0-0.3-0.1-0.6-0.3-0.8c-0.2-0.2-0.4-0.4-0.7-0.4
					c-0.4,0-0.7,0.1-0.8,0.4c-0.1,0.3-0.2,0.6-0.2,1v5.8c0,0.3,0.1,0.6,0.2,0.8c0.1,0.2,0.4,0.3,0.8,0.3c0.1,0,0.2,0,0.3-0.1
					c0.1,0,0.2-0.1,0.3-0.2c0.1-0.1,0.2-0.2,0.2-0.4c0.1-0.1,0.1-0.3,0.1-0.6V8.2H115.4z"/>
			</g>
		</g>
		<g>
			<g>
				<path class="st0" d="M201.2,66.6V55.2h2.4c0.9,0,1.7,0.3,2.1,0.8c0.5,0.5,0.7,1.2,0.7,2.2v5.3c0,1.1-0.3,1.9-0.8,2.4
					c-0.5,0.5-1.3,0.8-2.2,0.8H201.2z M202.8,56.7V65h0.8c0.5,0,0.8-0.1,1-0.3c0.2-0.2,0.3-0.6,0.3-1.1v-5.5c0-0.4-0.1-0.8-0.3-1
					c-0.2-0.2-0.5-0.4-1-0.4H202.8z"/>
			</g>
		</g>
		<g>
			<g>
				<path class="st0" d="M200.7,179.2v-11.4h4.9v1.5h-3.2v3.3h2.8v1.5h-2.8v3.3h3.2v1.6H200.7z"/>
			</g>
		</g>
		<g>
			<g>
				<path class="st0" d="M162.9,214.1v-11.4h4.9v1.5h-3.2v3.5h2.8v1.5h-2.8v4.9H162.9z"/>
			</g>
		</g>
		<g>
			<g>
				<path class="st0" d="M56.4,205.4c0-0.5,0.1-0.9,0.2-1.2c0.2-0.4,0.4-0.6,0.6-0.9c0.3-0.2,0.5-0.4,0.9-0.5c0.3-0.1,0.7-0.2,1-0.2
					c0.3,0,0.7,0.1,1,0.2c0.3,0.1,0.6,0.3,0.9,0.5c0.3,0.2,0.5,0.5,0.6,0.9c0.2,0.4,0.2,0.8,0.2,1.2v0.6h-1.6v-0.6
					c0-0.4-0.1-0.7-0.3-0.9c-0.2-0.2-0.5-0.3-0.8-0.3c-0.3,0-0.6,0.1-0.8,0.3c-0.2,0.2-0.3,0.5-0.3,0.9v6c0,0.4,0.1,0.7,0.3,0.9
					c0.2,0.2,0.5,0.3,0.8,0.3c0.3,0,0.6-0.1,0.8-0.3s0.3-0.5,0.3-0.9v-2.1h-1.3v-1.4h2.9v3.6c0,0.5-0.1,0.9-0.2,1.2
					c-0.2,0.3-0.4,0.6-0.6,0.8c-0.3,0.2-0.6,0.4-0.9,0.5c-0.3,0.1-0.7,0.2-1,0.2c-0.3,0-0.7-0.1-1-0.2c-0.3-0.1-0.6-0.3-0.9-0.5
					c-0.3-0.2-0.5-0.5-0.6-0.8s-0.2-0.8-0.2-1.2V205.4z"/>
			</g>
		</g>
		<g>
			<g>
				<path class="st0" d="M4.8,118.7l2.5-11.4h1.4l2.5,11.4H9.6l-0.5-2.4H6.9l-0.5,2.4H4.8z M8.8,114.7L8,110.6h0l-0.8,4.1H8.8z"/>
			</g>
		</g>
		<g>
			<g>
				<path class="st0" d="M56.4,28.5V17.1h2.4c0.5,0,1,0.1,1.3,0.2c0.4,0.2,0.7,0.4,0.9,0.6c0.2,0.3,0.4,0.6,0.5,0.9
					c0.1,0.3,0.2,0.7,0.2,1.1v0.4c0,0.3,0,0.6-0.1,0.8c0,0.2-0.1,0.4-0.2,0.6c-0.2,0.3-0.5,0.6-0.8,0.8c0.4,0.2,0.7,0.4,0.8,0.8
					c0.2,0.4,0.3,0.8,0.3,1.4v0.6c0,1-0.2,1.8-0.7,2.3c-0.5,0.5-1.3,0.8-2.3,0.8H56.4z M58,18.6v3.1h0.7c0.5,0,0.9-0.1,1.1-0.4
					c0.2-0.3,0.3-0.7,0.3-1.2c0-0.5-0.1-0.9-0.3-1.2c-0.2-0.3-0.6-0.4-1.1-0.4H58z M58,23.2v3.6h0.7c0.3,0,0.6,0,0.8-0.1
					c0.2-0.1,0.3-0.2,0.4-0.4c0.1-0.2,0.2-0.4,0.2-0.6c0-0.2,0-0.5,0-0.8c0-0.3,0-0.5,0-0.8c0-0.2-0.1-0.4-0.2-0.5
					c-0.1-0.1-0.3-0.3-0.4-0.3c-0.2-0.1-0.4-0.1-0.7-0.1H58z"/>
			</g>
		</g>
		<g>
			<g>
				<g>
					<path class="st0" d="M169.2,25.1v0.7c0,0.4-0.1,0.7-0.2,1c-0.1,0.3-0.3,0.6-0.6,0.8c-0.2,0.2-0.5,0.4-0.8,0.6
						c-0.3,0.1-0.7,0.2-1,0.2c-0.3,0-0.6,0-0.9-0.1c-0.3-0.1-0.6-0.2-0.9-0.4c-0.3-0.2-0.5-0.5-0.6-0.8c-0.2-0.3-0.2-0.8-0.2-1.3
						v-6.3c0-0.4,0.1-0.7,0.2-1s0.3-0.6,0.5-0.8c0.2-0.2,0.5-0.4,0.8-0.6c0.3-0.1,0.7-0.2,1.1-0.2c0.8,0,1.4,0.3,1.9,0.8
						c0.2,0.2,0.4,0.5,0.6,0.9c0.1,0.3,0.2,0.7,0.2,1.1v0.6h-1.6v-0.5c0-0.3-0.1-0.6-0.3-0.8c-0.2-0.2-0.4-0.4-0.7-0.4
						c-0.4,0-0.7,0.1-0.8,0.4c-0.1,0.3-0.2,0.6-0.2,1v5.8c0,0.3,0.1,0.6,0.2,0.8c0.1,0.2,0.4,0.3,0.8,0.3c0.1,0,0.2,0,0.3-0.1
						c0.1,0,0.2-0.1,0.3-0.2c0.1-0.1,0.2-0.2,0.2-0.4c0.1-0.1,0.1-0.3,0.1-0.6v-0.6H169.2z"/>
				</g>
			</g>
			<g>
				<g>
					<path class="st0" d="M178.7,28.4V17h2.4c0.9,0,1.7,0.3,2.1,0.8c0.5,0.5,0.7,1.2,0.7,2.2v5.3c0,1.1-0.3,1.9-0.8,2.4
						c-0.5,0.5-1.3,0.8-2.2,0.8H178.7z M180.3,18.5v8.3h0.8c0.5,0,0.8-0.1,1-0.3c0.2-0.2,0.3-0.6,0.3-1.1v-5.5c0-0.4-0.1-0.8-0.3-1
						c-0.2-0.2-0.5-0.4-1-0.4H180.3z"/>
				</g>
			</g>
			<g>
				<g>
					<path class="st0" d="M171.7,19.7v-1.8l-1.1,0.2v-1l1.1-0.2v-1.7l-1.1,0.2v-1l1.1-0.2v-1.7l0.5-0.1v1.7l1.2-0.3v-1.9l0.5-0.1
						v1.9l1.1-0.2v1l-1.1,0.2v1.7l1.1-0.2v1l-1.1,0.2v1.6l-0.5,0.1v-1.6l-1.2,0.3v1.8L171.7,19.7z M172.2,16.8l1.2-0.3v-1.7
						l-1.2,0.3V16.8z"/>
				</g>
			</g>
			<g>
				<g>
					<path class="st0" d="M185.5,19.8v-9h0.4v4.8c0.1-0.1,0.1-0.2,0.2-0.2c0.1-0.1,0.2-0.1,0.3-0.2c0.1-0.1,0.2-0.1,0.4-0.2
						c0.1,0,0.3-0.1,0.4-0.1c0.2,0,0.4,0,0.5,0.1c0.2,0.1,0.3,0.1,0.4,0.3c0.1,0.1,0.2,0.2,0.3,0.4c0.1,0.2,0.1,0.3,0.1,0.5
						c0,0.3-0.1,0.6-0.3,1c-0.2,0.3-0.5,0.7-0.9,1c0,0-0.1,0.1-0.2,0.2c-0.1,0.1-0.2,0.2-0.3,0.2c-0.1,0.1-0.2,0.2-0.3,0.3
						c-0.1,0.1-0.2,0.2-0.3,0.3c-0.1,0.1-0.2,0.2-0.2,0.2c-0.1,0.1-0.1,0.1-0.1,0.1C185.8,19.6,185.7,19.7,185.5,19.8
						C185.6,19.8,185.5,19.8,185.5,19.8z M185.9,19.2c0.1-0.1,0.2-0.2,0.4-0.4c0.2-0.2,0.3-0.3,0.5-0.6c0.2-0.2,0.4-0.5,0.5-0.7
						s0.1-0.4,0.1-0.5c0-0.2-0.1-0.3-0.2-0.5c-0.1-0.1-0.3-0.2-0.4-0.2c-0.1,0-0.3,0-0.4,0.1c-0.1,0.1-0.2,0.1-0.3,0.2
						c-0.1,0.1-0.2,0.2-0.2,0.3V19.2z"/>
				</g>
			</g>
			<g>
				
					<rect x="169" y="22.4" transform="matrix(0.332 -0.9433 0.9433 0.332 95.6114 180.2446)" class="st0" width="12.2" height="0.5"/>
			</g>
		</g>
		<g>
			<g>
				<g>
					<path class="st0" d="M214.6,119.1v-11.4h2.4c0.9,0,1.7,0.3,2.1,0.8c0.5,0.5,0.7,1.2,0.7,2.2v5.3c0,1.1-0.3,1.9-0.8,2.4
						c-0.5,0.5-1.3,0.8-2.2,0.8H214.6z M216.2,109.3v8.3h0.8c0.5,0,0.8-0.1,1-0.3c0.2-0.2,0.3-0.6,0.3-1.1v-5.5c0-0.4-0.1-0.8-0.3-1
						c-0.2-0.2-0.5-0.4-1-0.4H216.2z"/>
				</g>
			</g>
			<g>
				<g>
					<path class="st0" d="M229.8,119.1v-11.4h4.9v1.5h-3.2v3.3h2.8v1.5h-2.8v3.3h3.2v1.6H229.8z"/>
				</g>
			</g>
			<g>
				<g>
					<path class="st0" d="M222.4,110.5v-1.8l-1.1,0.2v-1l1.1-0.2v-1.7l-1.1,0.2v-1l1.1-0.2v-1.7l0.5-0.1v1.7l1.2-0.3v-1.9l0.5-0.1
						v1.9l1.1-0.2v1l-1.1,0.2v1.7l1.1-0.2v1l-1.1,0.2v1.6l-0.5,0.1v-1.6l-1.2,0.3v1.8L222.4,110.5z M222.8,107.5l1.2-0.3v-1.7
						l-1.2,0.3V107.5z"/>
				</g>
			</g>
			<g>
				<g>
					<path class="st0" d="M236.2,110.6v-9h0.4v4.8c0.1-0.1,0.1-0.2,0.2-0.2c0.1-0.1,0.2-0.1,0.3-0.2c0.1-0.1,0.2-0.1,0.4-0.2
						c0.1,0,0.3-0.1,0.4-0.1c0.2,0,0.4,0,0.5,0.1c0.2,0.1,0.3,0.1,0.4,0.3s0.2,0.2,0.3,0.4c0.1,0.2,0.1,0.3,0.1,0.5
						c0,0.3-0.1,0.6-0.3,1c-0.2,0.3-0.5,0.7-0.9,1c0,0-0.1,0.1-0.2,0.2c-0.1,0.1-0.2,0.2-0.3,0.2c-0.1,0.1-0.2,0.2-0.3,0.3
						c-0.1,0.1-0.2,0.2-0.3,0.3c-0.1,0.1-0.2,0.2-0.2,0.2c-0.1,0.1-0.1,0.1-0.1,0.1C236.4,110.4,236.3,110.5,236.2,110.6
						C236.2,110.5,236.2,110.6,236.2,110.6z M236.6,110c0.1-0.1,0.2-0.2,0.4-0.4c0.2-0.2,0.3-0.3,0.5-0.6c0.2-0.2,0.4-0.5,0.5-0.7
						s0.1-0.4,0.1-0.5c0-0.2-0.1-0.3-0.2-0.5s-0.3-0.2-0.4-0.2c-0.1,0-0.3,0-0.4,0.1s-0.2,0.1-0.3,0.2c-0.1,0.1-0.2,0.2-0.2,0.3V110
						z"/>
				</g>
			</g>
			<g>
				
					<rect x="219.6" y="113.1" transform="matrix(0.332 -0.9433 0.9433 0.332 43.8614 288.6597)" class="st0" width="12.2" height="0.5"/>
			</g>
		</g>
		<g>
			<g>
				<g>
					<path class="st0" d="M102.8,229.4V218h4.9v1.5h-3.2v3.5h2.8v1.5h-2.8v4.9H102.8z"/>
				</g>
			</g>
			<g>
				<g>
					<path class="st0" d="M117,220.7c0-0.5,0.1-0.9,0.2-1.2c0.2-0.4,0.4-0.6,0.6-0.9c0.3-0.2,0.5-0.4,0.9-0.5c0.3-0.1,0.7-0.2,1-0.2
						s0.7,0.1,1,0.2c0.3,0.1,0.6,0.3,0.9,0.5c0.3,0.2,0.5,0.5,0.6,0.9c0.2,0.4,0.2,0.8,0.2,1.2v0.6h-1.6v-0.6c0-0.4-0.1-0.7-0.3-0.9
						c-0.2-0.2-0.5-0.3-0.8-0.3s-0.6,0.1-0.8,0.3c-0.2,0.2-0.3,0.5-0.3,0.9v6c0,0.4,0.1,0.7,0.3,0.9s0.5,0.3,0.8,0.3
						s0.6-0.1,0.8-0.3c0.2-0.2,0.3-0.5,0.3-0.9v-2.1h-1.3v-1.4h2.9v3.6c0,0.5-0.1,0.9-0.2,1.2s-0.4,0.6-0.6,0.8
						c-0.3,0.2-0.6,0.4-0.9,0.5c-0.3,0.1-0.7,0.2-1,0.2s-0.7-0.1-1-0.2c-0.3-0.1-0.6-0.3-0.9-0.5c-0.3-0.2-0.5-0.5-0.6-0.8
						c-0.2-0.3-0.2-0.8-0.2-1.2V220.7z"/>
				</g>
			</g>
			<g>
				<g>
					<path class="st0" d="M110.1,220.8V219l-1.1,0.2v-1l1.1-0.2v-1.7l-1.1,0.2v-1l1.1-0.2v-1.7l0.5-0.1v1.7l1.2-0.3v-1.9l0.5-0.1
						v1.9l1.1-0.2v1l-1.1,0.2v1.7l1.1-0.2v1l-1.1,0.2v1.6l-0.5,0.1v-1.6l-1.2,0.3v1.8L110.1,220.8z M110.6,217.8l1.2-0.3v-1.7
						l-1.2,0.3V217.8z"/>
				</g>
			</g>
			<g>
				<g>
					<path class="st0" d="M124,220.8v-9h0.4v4.8c0.1-0.1,0.1-0.2,0.2-0.2c0.1-0.1,0.2-0.1,0.3-0.2c0.1-0.1,0.2-0.1,0.4-0.2
						c0.1,0,0.3-0.1,0.4-0.1c0.2,0,0.4,0,0.5,0.1c0.2,0.1,0.3,0.1,0.4,0.3s0.2,0.2,0.3,0.4c0.1,0.2,0.1,0.3,0.1,0.5
						c0,0.3-0.1,0.6-0.3,1c-0.2,0.3-0.5,0.7-0.9,1c0,0-0.1,0.1-0.2,0.2c-0.1,0.1-0.2,0.2-0.3,0.2c-0.1,0.1-0.2,0.2-0.3,0.3
						c-0.1,0.1-0.2,0.2-0.3,0.3c-0.1,0.1-0.2,0.2-0.2,0.2c-0.1,0.1-0.1,0.1-0.1,0.1C124.2,220.6,124.1,220.7,124,220.8
						C124,220.8,124,220.8,124,220.8z M124.3,220.2c0.1-0.1,0.2-0.2,0.4-0.4c0.2-0.2,0.3-0.3,0.5-0.6c0.2-0.2,0.4-0.5,0.5-0.7
						s0.1-0.4,0.1-0.5c0-0.2-0.1-0.3-0.2-0.5s-0.3-0.2-0.4-0.2c-0.1,0-0.3,0-0.4,0.1s-0.2,0.1-0.3,0.2c-0.1,0.1-0.2,0.2-0.2,0.3
						V220.2z"/>
				</g>
			</g>
			<g>
				
					<rect x="107.4" y="223.4" transform="matrix(0.332 -0.9433 0.9433 0.332 -135.1355 256.4598)" class="st0" width="12.2" height="0.5"/>
			</g>
		</g>
		<g>
			<g>
				<g>
					<path class="st0" d="M0,170.9c0-0.5,0.1-0.9,0.2-1.2c0.2-0.4,0.4-0.6,0.6-0.9c0.3-0.2,0.5-0.4,0.9-0.5c0.3-0.1,0.7-0.2,1-0.2
						c0.3,0,0.7,0.1,1,0.2c0.3,0.1,0.6,0.3,0.9,0.5c0.3,0.2,0.5,0.5,0.6,0.9c0.2,0.4,0.2,0.8,0.2,1.2v0.6H3.8v-0.6
						c0-0.4-0.1-0.7-0.3-0.9c-0.2-0.2-0.5-0.3-0.8-0.3c-0.3,0-0.6,0.1-0.8,0.3c-0.2,0.2-0.3,0.5-0.3,0.9v6c0,0.4,0.1,0.7,0.3,0.9
						c0.2,0.2,0.5,0.3,0.8,0.3c0.3,0,0.6-0.1,0.8-0.3c0.2-0.2,0.3-0.5,0.3-0.9v-2.1H2.5v-1.4h2.9v3.6c0,0.5-0.1,0.9-0.2,1.2
						c-0.2,0.3-0.4,0.6-0.6,0.8c-0.3,0.2-0.6,0.4-0.9,0.5c-0.3,0.1-0.7,0.2-1,0.2c-0.3,0-0.7-0.1-1-0.2c-0.3-0.1-0.6-0.3-0.9-0.5
						c-0.3-0.2-0.5-0.5-0.6-0.8S0,177.4,0,176.9V170.9z"/>
				</g>
			</g>
			<g>
				<g>
					<path class="st0" d="M14.3,179.6l2.5-11.4h1.4l2.5,11.4h-1.6l-0.5-2.4h-2.2l-0.5,2.4H14.3z M18.3,175.6l-0.8-4.1h0l-0.8,4.1
						H18.3z"/>
				</g>
			</g>
			<g>
				<g>
					<path class="st0" d="M7.9,171v-1.8l-1.1,0.2v-1l1.1-0.2v-1.7l-1.1,0.2v-1l1.1-0.2v-1.7l0.5-0.1v1.7l1.2-0.3v-1.9L10,163v1.9
						l1.1-0.2v1l-1.1,0.2v1.7l1.1-0.2v1l-1.1,0.2v1.6l-0.5,0.1v-1.6l-1.2,0.3v1.8L7.9,171z M8.4,168l1.2-0.3V166l-1.2,0.3V168z"/>
				</g>
			</g>
			<g>
				<g>
					<path class="st0" d="M21.7,171v-9h0.4v4.8c0.1-0.1,0.1-0.2,0.2-0.2c0.1-0.1,0.2-0.1,0.3-0.2c0.1-0.1,0.2-0.1,0.4-0.2
						c0.1,0,0.3-0.1,0.4-0.1c0.2,0,0.4,0,0.5,0.1c0.2,0.1,0.3,0.1,0.4,0.3c0.1,0.1,0.2,0.2,0.3,0.4s0.1,0.3,0.1,0.5
						c0,0.3-0.1,0.6-0.3,1c-0.2,0.3-0.5,0.7-0.9,1c0,0-0.1,0.1-0.2,0.2c-0.1,0.1-0.2,0.2-0.3,0.2c-0.1,0.1-0.2,0.2-0.3,0.3
						s-0.2,0.2-0.3,0.3c-0.1,0.1-0.2,0.2-0.2,0.2c-0.1,0.1-0.1,0.1-0.1,0.1C22,170.8,21.9,170.9,21.7,171
						C21.8,171,21.7,171,21.7,171z M22.1,170.5c0.1-0.1,0.2-0.2,0.4-0.4c0.2-0.2,0.3-0.3,0.5-0.6c0.2-0.2,0.4-0.5,0.5-0.7
						s0.1-0.4,0.1-0.5c0-0.2-0.1-0.3-0.2-0.5c-0.1-0.1-0.3-0.2-0.4-0.2c-0.1,0-0.3,0-0.4,0.1c-0.1,0.1-0.2,0.1-0.3,0.2
						c-0.1,0.1-0.2,0.2-0.2,0.3V170.5z"/>
				</g>
			</g>
			<g>
				
					<rect x="5.2" y="173.6" transform="matrix(0.332 -0.9433 0.9433 0.332 -156.4523 126.7627)" class="st0" width="12.2" height="0.5"/>
			</g>
		</g>
		<g>
			<g>
				<g>
					<path class="st0" d="M1,66.5l2.5-11.4h1.4l2.5,11.4H5.8L5.3,64H3.1l-0.5,2.4H1z M5,62.5l-0.8-4.1h0l-0.8,4.1H5z"/>
				</g>
			</g>
			<g>
				<g>
					<path class="st0" d="M16.4,66.5V55.1h2.4c0.5,0,1,0.1,1.3,0.2c0.4,0.2,0.7,0.4,0.9,0.6c0.2,0.3,0.4,0.6,0.5,0.9
						c0.1,0.3,0.2,0.7,0.2,1.1v0.4c0,0.3,0,0.6-0.1,0.8c0,0.2-0.1,0.4-0.2,0.6c-0.2,0.3-0.5,0.6-0.8,0.8c0.4,0.2,0.7,0.4,0.8,0.8
						c0.2,0.4,0.3,0.8,0.3,1.4v0.6c0,1-0.2,1.8-0.7,2.3c-0.5,0.5-1.3,0.8-2.3,0.8H16.4z M18,56.6v3.1h0.7c0.5,0,0.9-0.1,1.1-0.4
						c0.2-0.3,0.3-0.7,0.3-1.2c0-0.5-0.1-0.9-0.3-1.2s-0.6-0.4-1.1-0.4H18z M18,61.2v3.6h0.7c0.3,0,0.6,0,0.8-0.1
						c0.2-0.1,0.3-0.2,0.4-0.4c0.1-0.2,0.2-0.4,0.2-0.6c0-0.2,0-0.5,0-0.8c0-0.3,0-0.5,0-0.8c0-0.2-0.1-0.4-0.2-0.5
						c-0.1-0.1-0.3-0.3-0.4-0.3c-0.2-0.1-0.4-0.1-0.7-0.1H18z"/>
				</g>
			</g>
			<g>
				<g>
					<path class="st0" d="M9.4,57.9v-1.8l-1.1,0.2v-1L9.4,55v-1.7l-1.1,0.2v-1l1.1-0.2v-1.7l0.5-0.1v1.7l1.2-0.3V50l0.5-0.1v1.9
						l1.1-0.2v1l-1.1,0.2v1.7l1.1-0.2v1l-1.1,0.2v1.6l-0.5,0.1v-1.6L9.9,56v1.8L9.4,57.9z M9.9,54.9l1.2-0.3v-1.7l-1.2,0.3V54.9z"/>
				</g>
			</g>
			<g>
				<g>
					<path class="st0" d="M23.2,58v-9h0.4v4.8c0.1-0.1,0.1-0.2,0.2-0.2c0.1-0.1,0.2-0.1,0.3-0.2c0.1-0.1,0.2-0.1,0.4-0.2
						c0.1,0,0.3-0.1,0.4-0.1c0.2,0,0.4,0,0.5,0.1c0.2,0.1,0.3,0.1,0.4,0.3c0.1,0.1,0.2,0.2,0.3,0.4c0.1,0.2,0.1,0.3,0.1,0.5
						c0,0.3-0.1,0.6-0.3,1c-0.2,0.3-0.5,0.7-0.9,1c0,0-0.1,0.1-0.2,0.2s-0.2,0.2-0.3,0.2c-0.1,0.1-0.2,0.2-0.3,0.3
						c-0.1,0.1-0.2,0.2-0.3,0.3c-0.1,0.1-0.2,0.2-0.2,0.2c-0.1,0.1-0.1,0.1-0.1,0.1C23.5,57.8,23.4,57.8,23.2,58
						C23.3,57.9,23.2,58,23.2,58z M23.6,57.4c0.1-0.1,0.2-0.2,0.4-0.4c0.2-0.2,0.3-0.3,0.5-0.6c0.2-0.2,0.4-0.5,0.5-0.7
						s0.1-0.4,0.1-0.5c0-0.2-0.1-0.3-0.2-0.5c-0.1-0.1-0.3-0.2-0.4-0.2c-0.1,0-0.3,0-0.4,0.1c-0.1,0.1-0.2,0.1-0.3,0.2
						c-0.1,0.1-0.2,0.2-0.2,0.3V57.4z"/>
				</g>
			</g>
			<g>
				
					<rect x="6.7" y="60.5" transform="matrix(0.332 -0.9433 0.9433 0.332 -48.7699 52.631)" class="st0" width="12.2" height="0.5"/>
			</g>
		</g>
	</g>
</g>
</svg>
