<?xml version="1.0" standalone="no"?>
<!DOCTYPE svg PUBLIC "-//W3C//DTD SVG 20010904//EN"
 "http://www.w3.org/TR/2001/REC-SVG-20010904/DTD/svg10.dtd">
<svg version="1.0" xmlns="http://www.w3.org/2000/svg"
 width="464.000000pt" height="466.000000pt" viewBox="0 0 464.000000 466.000000"
 preserveAspectRatio="xMidYMid meet">
<metadata>
Created by potrace 1.16, written by Peter Selinger 2001-2019
</metadata>
<g transform="translate(0.000000,466.000000) scale(0.100000,-0.100000)"
fill="#666666" stroke="none">
<path d="M2145 4650 c-467 -38 -902 -209 -1270 -500 -114 -90 -318 -298 -403
-412 -328 -439 -485 -926 -469 -1463 11 -361 80 -653 226 -951 130 -267 249
-434 460 -644 266 -265 555 -443 910 -560 256 -85 430 -112 716 -112 286 0
473 29 725 112 354 117 650 300 915 565 442 441 685 1022 685 1633 0 1071
-722 2007 -1751 2268 -218 55 -526 82 -744 64z m401 -295 c155 -17 363 -68
507 -125 416 -162 761 -452 1001 -838 196 -319 299 -687 298 -1077 -1 -862
-563 -1642 -1382 -1916 -245 -82 -472 -115 -725 -106 -518 19 -995 226 -1361
592 -259 260 -447 588 -533 932 -157 629 -35 1233 354 1752 77 103 248 277
355 361 415 329 957 484 1486 425z"/>
<path d="M1516 3566 c-81 -30 -140 -121 -174 -268 -23 -103 -23 -414 1 -516
41 -183 124 -282 234 -282 160 1 254 195 255 525 1 211 -26 346 -88 452 -47
81 -145 119 -228 89z"/>
<path d="M2976 3566 c-79 -30 -141 -124 -173 -266 -23 -104 -23 -414 0 -518
50 -227 171 -327 314 -262 112 51 174 233 174 515 0 338 -79 522 -232 540 -26
3 -60 -1 -83 -9z"/>
<path d="M900 2103 c-48 -25 -80 -76 -80 -129 0 -97 50 -270 124 -428 136
-291 398 -562 681 -703 361 -181 778 -215 1160 -96 372 117 719 412 895 762
86 172 150 391 136 467 -5 25 -21 51 -47 77 -38 39 -40 39 -100 35 -88 -6
-117 -40 -149 -169 -33 -140 -75 -246 -135 -348 -189 -319 -493 -527 -863
-591 -256 -45 -492 -11 -739 105 -335 157 -577 464 -667 845 -13 55 -31 111
-40 125 -34 52 -121 76 -176 48z"/>
</g>
</svg>
