<svg xmlns="http://www.w3.org/2000/svg" viewBox="0 0 512 420" preserveAspectRatio="xMidYMid meet">
<path fill="#666666" fill-rule="evenodd" d="M161.3,382.9 L157.9,384.3 L154.2,384.9 L150.0,384.7 L145.6,383.8 L140.9,382.0 L135.9,379.5 L130.7,376.3 L125.5,372.3 L120.2,367.7 L114.9,362.4 L109.6,356.7 L104.4,350.4 L99.5,343.7 L94.7,336.6 L90.2,329.3 L86.1,321.8 L82.3,314.2 L78.9,306.6 L76.0,299.0 L73.6,291.6 L71.7,284.4 L70.3,277.5 L69.4,270.9 L69.1,264.9 L69.4,259.3 L70.2,254.3 L71.6,250.0 L73.5,246.3 L75.9,243.3 L78.7,241.1 L394.7,57.1 L398.1,55.7 L401.8,55.1 L406.0,55.3 L410.4,56.2 L415.1,58.0 L420.1,60.5 L425.3,63.7 L430.5,67.7 L435.8,72.3 L441.1,77.6 L446.4,83.3 L451.6,89.6 L456.5,96.3 L461.3,103.4 L465.8,110.7 L469.9,118.2 L473.7,125.8 L477.1,133.4 L480.0,141.0 L482.4,148.4 L484.3,155.6 L485.7,162.5 L486.6,169.1 L486.9,175.1 L486.6,180.7 L485.8,185.7 L484.4,190.0 L482.5,193.7 L480.1,196.7 L477.3,198.9 Z M146.4,357.4 L148.4,355.8 L150.0,353.7 L151.2,351.1 L152.1,348.0 L152.5,344.5 L152.5,340.5 L152.1,336.2 L151.4,331.6 L150.2,326.7 L148.6,321.7 L146.7,316.5 L144.4,311.3 L141.9,306.1 L139.0,300.9 L136.0,295.9 L132.7,291.1 L129.3,286.6 L125.7,282.3 L122.1,278.5 L118.4,275.1 L114.8,272.1 L111.2,269.6 L107.8,267.7 L104.5,266.3 L101.4,265.5 L98.5,265.3 L95.9,265.7 L93.6,266.6 L91.6,268.2 L90.0,270.3 L88.8,272.9 L87.9,276.0 L87.5,279.5 L87.5,283.5 L87.9,287.8 L88.6,292.4 L89.8,297.3 L91.4,302.3 L93.3,307.5 L95.6,312.7 L98.1,317.9 L101.0,323.1 L104.0,328.1 L107.3,332.9 L110.7,337.4 L114.3,341.7 L117.9,345.5 L121.6,348.9 L125.2,351.9 L128.8,354.4 L132.2,356.3 L135.5,357.7 L138.6,358.5 L141.5,358.7 L144.1,358.3 L146.4,357.4 Z M160.1,235.4 L403.4,93.8 L408.4,102.4 L165.1,244.1 Z M173.6,258.7 L426.4,111.5 L432.4,121.8 L179.6,269.0 Z"/>
</svg>
