<?xml version="1.0" standalone="no"?>
<!DOCTYPE svg PUBLIC "-//W3C//DTD SVG 20010904//EN"
 "http://www.w3.org/TR/2001/REC-SVG-20010904/DTD/svg10.dtd">
<svg version="1.0" xmlns="http://www.w3.org/2000/svg"
 width="438.000000pt" height="392.000000pt" viewBox="0 0 438.000000 392.000000"
 preserveAspectRatio="xMidYMid meet">
<metadata>
Created by potrace 1.16, written by Peter Selinger 2001-2019
</metadata>
<g transform="translate(0.000000,392.000000) scale(0.100000,-0.100000)"
fill="#383842" stroke="none">
<path d="M499 3607 c-19 -12 -35 -30 -37 -40 -3 -16 42 -17 722 -17 399 0 726
4 726 8 0 12 -22 37 -50 56 -22 14 -88 16 -676 16 l-651 0 -34 -23z"/>
<path d="M2530 3623 c-19 -7 -70 -54 -70 -65 0 -4 327 -8 726 -8 680 0 725 1
722 17 -2 10 -18 28 -37 40 l-34 23 -646 -1 c-355 0 -653 -3 -661 -6z"/>
<path d="M378 3491 c-30 -27 -33 -34 -36 -105 l-4 -76 846 0 846 0 0 55 c0 65
-19 116 -51 139 -21 14 -98 16 -796 16 l-773 0 -32 -29z"/>
<path d="M2392 3504 c-35 -24 -52 -68 -52 -134 l0 -60 845 0 845 0 0 65 c0 75
-17 116 -55 133 -44 20 -1554 17 -1583 -4z"/>
<path d="M409 3238 c-30 -60 -64 -163 -86 -260 -58 -265 38 -1266 172 -1798
41 -163 203 -639 277 -817 l31 -73 378 0 379 0 16 38 c245 582 372 1103 443
1807 64 631 55 810 -54 1078 l-27 67 -754 0 -754 0 -21 -42z m411 -384 l0
-405 24 -32 c61 -80 16 -187 -77 -187 -91 1 -137 96 -87 178 19 31 20 50 20
442 l0 410 60 0 60 0 0 -406z m830 -6 l0 -412 23 -24 c60 -64 7 -182 -82 -182
-94 0 -146 132 -75 190 12 11 14 77 14 426 l0 414 60 0 60 0 0 -412z"/>
<path d="M2401 3209 c-85 -191 -106 -335 -91 -633 26 -505 92 -995 186 -1366
45 -183 260 -817 305 -902 9 -17 38 -18 388 -18 l378 0 51 128 c262 665 363
1119 427 1927 38 468 17 677 -86 888 l-23 47 -752 0 -751 0 -32 -71z m429
-355 l0 -405 25 -37 c78 -115 -55 -244 -157 -153 -43 38 -48 114 -10 153 l22
24 0 412 0 412 60 0 60 0 0 -406z m830 -5 c0 -396 1 -412 20 -436 33 -42 28
-114 -11 -152 -94 -94 -240 45 -154 147 l25 30 0 411 0 411 60 0 60 0 0 -411z"/>
</g>
</svg>
