<?xml version="1.0" encoding="utf-8"?>
<!-- Generator: Adobe Illustrator 24.1.3, SVG Export Plug-In . SVG Version: 6.00 Build 0)  -->
<svg version="1.1" id="Layer_1" xmlns="http://www.w3.org/2000/svg" xmlns:xlink="http://www.w3.org/1999/xlink" x="0px" y="0px"
	 viewBox="0 0 10.8 32" style="enable-background:new 0 0 10.8 32;" xml:space="preserve">
<style type="text/css">
	.st0{fill:#666666;}
</style>
<g>
	<path class="st0" d="M8.3,1.3V0.5c0-0.1-0.1-0.4-0.3-0.4L7.5,0C7.2,0,7,0.3,7,0.5v0.7c0,0.1,0.1,0.2,0.2,0.2v0.3H7l0,0
		c0-0.1-0.1-0.3-0.3-0.3c-0.2,0-0.3,0.1-0.3,0.2v0.2c0,0.1,0.1,0.3,0.3,0.3C6.9,2.1,7,2,7,1.9l0,0h0.2l-0.3,1H6.8l0,0
		c0-0.1-0.1-0.3-0.3-0.3c-0.2,0-0.3,0.1-0.3,0.2V3c0,0.1,0.1,0.3,0.3,0.3c0.2,0,0.3-0.1,0.3-0.2l0,0h0.1v0.4c0,0-0.1,0.3,0.2,0.4
		l-0.8,7.2c-0.2,0.3-0.8,0.8-2.1,1.4c-2.4,1.1-2,3.2-1.8,4.1c0.2,0.8-0.2,1-0.2,1s1.2,0.3,0.7,2c-0.6,1.5-1,1.4-1.5,1.4
		c0,0,0,0.5-0.4,0.8s-1.8,2.8-0.4,4.7c1.2,1.7,3.3,2,4.1,2.1c0,0.1,0.1,0.2,0.3,0.3h0.1c0.1,0,0.3-0.1,0.3-0.2l0,0
		c0.8,0.1,2.8,0.1,4.2-1.2c1.8-1.6,1-4.3,0.6-4.7C9.8,22.4,10,22,10,22c-0.5-0.1-0.9-0.1-1-1.8c-0.1-1.7,1.1-1.8,1.1-1.8
		s-0.4-0.2,0-1s1.1-2.8-0.9-4.4c-1.2-1-1.6-1.5-1.8-1.9C7.6,7.9,7.9,4.5,7.9,4c0.2-0.1,0.2-0.4,0.2-0.4V3.1h0.1l0,0
		c0,0.1,0.1,0.3,0.3,0.3s0.3-0.1,0.3-0.2V3c0-0.1-0.1-0.3-0.3-0.3S8.2,2.8,8.2,2.9l0,0H8.1V2h0.1l0,0c0,0.1,0.1,0.3,0.3,0.3
		s0.3-0.1,0.3-0.2V1.9c0-0.1-0.1-0.3-0.3-0.3S8.2,1.7,8.2,1.8l0,0H8.1V1.5C8.3,1.4,8.3,1.4,8.3,1.3z M2.4,22.6
		c-0.1-0.1-0.5-0.6-0.1-0.7c0.6,0.1-0.1,0.5,0.1,0.6c1.2,0,0.6-2.6,1.5-3.1c0.4,0.1,0.8,0.1,0.6,0.6c-0.5,0.1,0.1-0.5-0.4-0.4
		C3.4,20.3,3.8,22.8,2.4,22.6z M7,21.6c0,0.1-0.1,0.2-0.2,0.2l-2-0.2c-0.1,0-0.2-0.1-0.2-0.3c0-0.1,0.1-0.2,0.2-0.2l2,0.2
		C6.9,21.4,7,21.5,7,21.6z M8.9,23c0.3-0.1-0.3-0.6,0.2-0.6C9.4,22.6,9,23,8.8,23.1c-1.5-0.1-0.5-2.5-1.1-3.4
		c-0.5-0.2,0,0.5-0.5,0.3c-0.1-0.5,0.3-0.5,0.7-0.5C8.8,20.3,7.7,22.8,8.9,23z"/>
	<g>
		
			<rect x="3.4" y="30.3" transform="matrix(8.401265e-02 -0.9965 0.9965 8.401265e-02 -25.8738 32.8053)" class="st0" width="3.1" height="0.3"/>
	</g>
</g>
</svg>
