<?xml version="1.0" standalone="no"?>
<!DOCTYPE svg PUBLIC "-//W3C//DTD SVG 20010904//EN"
 "http://www.w3.org/TR/2001/REC-SVG-20010904/DTD/svg10.dtd">
<svg version="1.0" xmlns="http://www.w3.org/2000/svg"
 width="331.000000pt" height="332.000000pt" viewBox="0 0 331.000000 332.000000"
 preserveAspectRatio="xMidYMid meet">
<metadata>
Created by potrace 1.16, written by Peter Selinger 2001-2019
</metadata>
<g transform="translate(0.000000,332.000000) scale(0.100000,-0.100000)"
fill="#666666" stroke="none">
<path d="M131 3305 c-53 -17 -88 -48 -112 -100 -18 -38 -19 -103 -19 -1545 0
-1439 1 -1507 19 -1545 25 -55 70 -91 131 -104 72 -15 2938 -15 3010 0 64 14
123 66 139 124 15 57 15 2993 0 3050 -15 54 -74 109 -132 124 -73 18 -2977 14
-3036 -4z m2946 -86 c58 -15 117 -70 132 -124 15 -57 15 -2813 0 -2870 -16
-58 -75 -110 -139 -124 -71 -15 -2758 -15 -2830 0 -61 13 -106 49 -131 104
-18 38 -19 104 -19 1455 0 1355 1 1417 19 1455 24 52 59 83 112 100 59 18
2784 22 2856 4z"/>
<path d="M497 2822 c-86 -86 -157 -164 -157 -173 0 -21 20 -39 45 -39 25 0
325 298 325 323 0 18 -26 47 -43 47 -7 0 -83 -71 -170 -158z"/>
<path d="M1253 2828 c-138 -137 -154 -156 -151 -183 2 -23 9 -31 27 -33 20 -3
53 25 177 149 158 158 176 186 135 209 -11 5 -23 10 -27 10 -4 0 -77 -69 -161
-152z"/>
<path d="M2003 2828 c-100 -100 -153 -159 -153 -173 0 -25 18 -45 40 -45 8 0
84 67 168 148 116 113 152 154 152 173 0 28 -17 49 -39 49 -8 0 -83 -68 -168
-152z"/>
<path d="M2776 2843 c-157 -154 -176 -175 -176 -195 0 -20 21 -38 45 -38 25 0
325 297 325 322 0 19 -26 48 -42 48 -6 0 -74 -62 -152 -137z"/>
<path d="M732 2588 c-28 -28 -10 -55 141 -206 84 -83 159 -152 168 -152 21 0
39 20 39 45 0 24 -297 325 -321 325 -8 0 -20 -5 -27 -12z"/>
<path d="M1482 2588 c-7 -7 -12 -19 -12 -27 0 -24 302 -331 326 -331 25 0 44
18 44 44 0 12 -59 79 -152 173 -151 152 -177 170 -206 141z"/>
<path d="M2242 2588 c-28 -28 -10 -55 141 -206 84 -83 159 -152 168 -152 21 0
39 20 39 45 0 24 -297 325 -321 325 -8 0 -20 -5 -27 -12z"/>
<path d="M491 2066 c-121 -121 -152 -158 -149 -176 2 -13 13 -27 27 -32 22 -8
39 6 183 149 87 86 158 164 158 173 0 22 -20 40 -45 40 -13 0 -75 -55 -174
-154z"/>
<path d="M1248 2072 c-115 -116 -148 -155 -148 -175 0 -31 26 -48 55 -37 34
13 305 295 305 316 0 26 -19 44 -44 44 -13 0 -74 -54 -168 -148z"/>
<path d="M2003 2068 c-105 -105 -153 -160 -153 -175 0 -28 33 -47 58 -34 9 5
81 75 160 154 127 127 143 147 140 173 -2 22 -9 30 -28 32 -20 2 -52 -25 -177
-150z"/>
<path d="M2751 2066 c-100 -101 -152 -160 -149 -171 1 -10 13 -24 26 -33 22
-14 27 -11 182 144 88 87 160 165 160 174 0 22 -20 40 -45 40 -14 0 -74 -53
-174 -154z"/>
<path d="M724 1814 c-6 -23 9 -42 147 -180 126 -127 158 -154 179 -152 19 2
26 10 28 32 3 26 -13 46 -145 178 -119 119 -153 148 -175 148 -21 0 -29 -6
-34 -26z"/>
<path d="M1482 1828 c-7 -7 -12 -19 -12 -28 0 -23 301 -320 326 -320 24 0 44
18 44 40 0 8 -69 84 -153 168 -150 150 -177 168 -205 140z"/>
<path d="M2237 1833 c-4 -3 -7 -18 -7 -32 0 -39 284 -321 322 -321 21 0 29 6
34 26 6 23 -9 42 -147 180 -145 145 -179 170 -202 147z"/>
<path d="M500 1314 c-88 -87 -160 -165 -160 -174 0 -22 20 -40 45 -40 28 0
328 302 323 325 -1 10 -13 24 -26 33 -22 14 -27 11 -182 -144z"/>
<path d="M2155 1460 c-35 -14 -305 -295 -305 -317 0 -28 25 -46 53 -39 12 3
87 70 165 150 109 110 142 150 142 170 0 30 -26 47 -55 36z"/>
<path d="M2756 1310 c-154 -153 -159 -159 -148 -184 23 -51 48 -35 211 128
135 135 153 157 147 179 -3 14 -15 27 -28 30 -19 5 -49 -20 -182 -153z"/>
<path d="M1247 1312 c-132 -132 -148 -152 -145 -178 2 -22 9 -30 28 -32 21 -2
53 25 178 151 125 125 153 159 150 178 -2 18 -10 25 -33 27 -27 2 -46 -14
-178 -146z"/>
<path d="M732 1078 c-7 -7 -12 -21 -12 -33 0 -28 298 -325 327 -325 21 0 33
17 33 48 0 21 -300 322 -321 322 -8 0 -20 -5 -27 -12z"/>
<path d="M1482 1078 c-7 -7 -12 -21 -12 -32 0 -28 297 -326 325 -326 25 0 45
18 45 40 0 23 -304 330 -327 330 -10 0 -24 -5 -31 -12z"/>
<path d="M2240 1076 c-6 -8 -10 -24 -8 -35 4 -26 296 -321 318 -321 22 0 40
20 40 45 0 24 -297 325 -321 325 -9 0 -22 -7 -29 -14z"/>
<path d="M492 557 c-161 -161 -176 -186 -127 -209 24 -11 32 -5 167 128 184
180 183 179 169 210 -22 48 -48 32 -209 -129z"/>
<path d="M1252 562 c-118 -115 -152 -154 -152 -174 0 -31 22 -52 47 -44 31 10
313 300 313 322 0 24 -18 44 -40 44 -8 0 -84 -67 -168 -148z"/>
<path d="M2003 558 c-162 -162 -177 -187 -127 -210 24 -11 32 -5 180 143 138
137 154 157 152 184 -2 24 -8 31 -28 33 -20 2 -52 -25 -177 -150z"/>
<path d="M2752 557 c-84 -85 -152 -161 -152 -170 0 -18 26 -47 43 -47 18 0
327 313 327 331 0 21 -20 39 -45 39 -14 0 -73 -53 -173 -153z"/>
</g>
</svg>
