<?xml version="1.0" encoding="utf-8"?>
<!-- Generator: Adobe Illustrator 24.1.3, SVG Export Plug-In . SVG Version: 6.00 Build 0)  -->
<svg version="1.1" id="Layer_1" xmlns="http://www.w3.org/2000/svg" xmlns:xlink="http://www.w3.org/1999/xlink" x="0px" y="0px"
	 viewBox="0 0 10.8 32" style="enable-background:new 0 0 10.8 32;" xml:space="preserve">
<style type="text/css">
	.st0{fill:#383842;}
</style>
<g>
	<path class="st0" d="M8.3,1.3l0-0.8c0-0.1-0.1-0.4-0.3-0.4L7.5,0C7.2,0,7,0.3,7,0.5L7,1.2c0,0.1,0.1,0.2,0.2,0.2l0,0.3l-0.2,0l0,0
		c0-0.1-0.1-0.3-0.3-0.3c-0.2,0-0.3,0.1-0.3,0.2l0,0.2c0,0.1,0.1,0.3,0.3,0.3c0.2,0,0.3-0.1,0.3-0.2l0,0l0.2,0L6.9,2.9l-0.1,0l0,0
		c0-0.1-0.1-0.3-0.3-0.3c-0.2,0-0.3,0.1-0.3,0.2l0,0.2c0,0.1,0.1,0.3,0.3,0.3c0.2,0,0.3-0.1,0.3-0.2l0,0l0.1,0L6.9,3.5
		c0,0-0.1,0.3,0.2,0.4l-0.8,7.2c-0.2,0.3-0.8,0.8-2.1,1.4c-2.4,1.1-2,3.2-1.8,4.1c0.2,0.8-0.2,1-0.2,1s1.2,0.3,0.7,2
		C2.3,21.1,1.9,21,1.4,21c0,0,0,0.5-0.4,0.8c-0.4,0.3-1.8,2.8-0.4,4.7c1.2,1.7,3.3,2,4.1,2.1c0,0.1,0.1,0.2,0.3,0.3l0.1,0
		c0.1,0,0.3-0.1,0.3-0.2c0,0,0,0,0,0c0.8,0.1,2.8,0.1,4.2-1.2c1.8-1.6,1-4.3,0.6-4.7c-0.4-0.4-0.2-0.8-0.2-0.8
		c-0.5-0.1-0.9-0.1-1-1.8c-0.1-1.7,1.1-1.8,1.1-1.8s-0.4-0.2,0-1s1.1-2.8-0.9-4.4c-1.2-1-1.6-1.5-1.8-1.9C7.6,7.9,7.9,4.5,7.9,4
		c0.2-0.1,0.2-0.4,0.2-0.4l0-0.5l0.1,0l0,0c0,0.1,0.1,0.3,0.3,0.3c0.2,0,0.3-0.1,0.3-0.2l0-0.2c0-0.1-0.1-0.3-0.3-0.3
		c-0.2,0-0.3,0.1-0.3,0.2l0,0l-0.1,0l0-0.9l0.1,0l0,0c0,0.1,0.1,0.3,0.3,0.3c0.2,0,0.3-0.1,0.3-0.2l0-0.2c0-0.1-0.1-0.3-0.3-0.3
		c-0.2,0-0.3,0.1-0.3,0.2l0,0l-0.1,0l0-0.3C8.3,1.4,8.3,1.4,8.3,1.3z M2.4,22.6c-0.1-0.1-0.5-0.6-0.1-0.7c0.6,0.1-0.1,0.5,0.1,0.6
		c1.2,0,0.6-2.6,1.5-3.1c0.4,0.1,0.8,0.1,0.6,0.6c-0.5,0.1,0.1-0.5-0.4-0.4C3.4,20.3,3.8,22.8,2.4,22.6z M7,21.6
		c0,0.1-0.1,0.2-0.2,0.2l-2-0.2c-0.1,0-0.2-0.1-0.2-0.3c0-0.1,0.1-0.2,0.2-0.2l2,0.2C6.9,21.4,7,21.5,7,21.6z M8.9,23
		c0.3-0.1-0.3-0.6,0.2-0.6C9.4,22.6,9,23,8.8,23.1c-1.5-0.1-0.5-2.5-1.1-3.4c-0.5-0.2,0,0.5-0.5,0.3c-0.1-0.5,0.3-0.5,0.7-0.5
		C8.8,20.3,7.7,22.8,8.9,23z"/>
	<g>
		
			<rect x="3.3" y="30.3" transform="matrix(8.401563e-02 -0.9965 0.9965 8.401563e-02 -25.844 32.7509)" class="st0" width="3.1" height="0.3"/>
	</g>
</g>
</svg>
