<?xml version="1.0" standalone="no"?>
<!DOCTYPE svg PUBLIC "-//W3C//DTD SVG 20010904//EN"
 "http://www.w3.org/TR/2001/REC-SVG-20010904/DTD/svg10.dtd">
<svg version="1.0" xmlns="http://www.w3.org/2000/svg"
 width="383.000000pt" height="384.000000pt" viewBox="0 0 383.000000 384.000000"
 preserveAspectRatio="xMidYMid meet">
<metadata>
Created by potrace 1.16, written by Peter Selinger 2001-2019
</metadata>
<g transform="translate(0.000000,384.000000) scale(0.100000,-0.100000)"
fill="#A0A0B4" stroke="none">
<path d="M254 3831 c-49 -12 -133 -62 -166 -100 -52 -59 -79 -130 -79 -208 0
-37 5 -83 10 -101 51 -172 237 -268 410 -213 73 23 81 21 134 -38 76 -84 110
-190 109 -336 -1 -122 -23 -214 -88 -363 -126 -289 -163 -436 -171 -677 -4
-129 -1 -193 11 -265 41 -252 163 -481 348 -657 273 -257 674 -396 1148 -395
657 1 1160 269 1387 738 79 165 104 271 110 479 4 143 2 189 -15 292 -24 135
-80 314 -146 461 -115 255 -133 455 -57 618 28 60 88 136 121 154 11 6 39 2
81 -11 229 -73 453 117 418 354 -15 100 -76 187 -167 235 -326 174 -682 -266
-682 -844 0 -139 27 -320 75 -509 59 -229 75 -329 75 -461 0 -270 -83 -478
-262 -650 -156 -152 -364 -254 -622 -307 -95 -19 -142 -22 -326 -22 -186 0
-229 4 -320 23 -498 108 -790 365 -866 760 -18 97 -18 287 1 398 9 48 33 158
55 244 63 247 74 325 74 515 0 123 -4 194 -17 258 -65 321 -230 563 -427 621
-56 17 -105 19 -156 7z"/>
<path d="M970 3025 l0 -55 945 0 945 0 0 55 0 55 -945 0 -945 0 0 -55z"/>
<path d="M1290 2051 c0 -762 1 -809 18 -814 9 -3 34 -12 55 -21 37 -16 37 -16
37 814 l0 830 -55 0 -55 0 0 -809z"/>
<path d="M1670 1996 c0 -864 0 -864 23 -870 12 -3 37 -6 55 -6 32 0 32 0 32
870 l0 870 -55 0 -55 0 0 -864z"/>
<path d="M2050 1990 c0 -870 0 -870 33 -870 17 0 42 3 55 6 22 6 22 6 22 870
l0 864 -55 0 -55 0 0 -870z"/>
<path d="M2430 2030 c0 -830 0 -830 25 -820 14 5 39 17 55 25 30 16 30 16 30
820 l0 805 -55 0 -55 0 0 -830z"/>
<path d="M916 527 c-79 -81 -143 -172 -196 -277 -41 -82 -90 -213 -90 -241 0
-5 536 -9 1285 -9 749 0 1285 4 1285 9 0 26 -47 156 -82 225 -54 108 -95 170
-168 255 -82 95 -93 100 -159 66 -491 -248 -1254 -251 -1740 -6 -33 17 -65 31
-72 31 -6 0 -34 -24 -63 -53z"/>
</g>
</svg>
