<?xml version="1.0" standalone="no"?>
<!DOCTYPE svg PUBLIC "-//W3C//DTD SVG 20010904//EN"
 "http://www.w3.org/TR/2001/REC-SVG-20010904/DTD/svg10.dtd">
<svg version="1.0" xmlns="http://www.w3.org/2000/svg"
 width="407.000000pt" height="320.000000pt" viewBox="0 0 407.000000 320.000000"
 preserveAspectRatio="xMidYMid meet">
<metadata>
Created by potrace 1.16, written by Peter Selinger 2001-2019
</metadata>
<g transform="translate(0.000000,320.000000) scale(0.100000,-0.100000)"
fill="#A0A0B4" stroke="none">
<path d="M253 3181 c-72 -24 -153 -80 -186 -128 -15 -22 -36 -65 -47 -96 -20
-55 -20 -85 -20 -1357 0 -1275 0 -1302 20 -1358 27 -78 65 -129 130 -174 105
-73 -36 -68 1880 -68 1409 0 1735 2 1777 13 64 17 155 78 194 132 16 22 39 69
49 104 19 61 20 99 20 1352 0 1281 0 1290 -21 1352 -37 110 -117 189 -231 228
-50 17 -137 18 -1783 18 -1640 0 -1733 -1 -1782 -18z m3465 -100 c114 -39 194
-118 231 -228 21 -62 21 -72 21 -1252 0 -1153 -1 -1191 -20 -1252 -10 -35 -33
-82 -49 -104 -39 -54 -130 -115 -194 -132 -42 -11 -352 -13 -1677 -13 -1805 0
-1675 -5 -1780 68 -65 45 -103 96 -130 174 -20 56 -20 83 -20 1258 0 1172 0
1202 20 1257 28 79 66 130 128 171 116 77 -37 71 1787 71 1549 0 1633 -1 1683
-18z"/>
<path d="M1355 2811 c-163 -29 -347 -110 -489 -215 -635 -472 -678 -1390 -88
-1919 126 -114 250 -186 427 -250 151 -54 406 -72 591 -42 380 62 720 311 896
658 36 73 107 266 109 298 0 8 28 34 62 59 71 51 99 91 281 402 276 471 243
425 306 425 146 0 270 132 257 272 -12 142 -119 241 -258 241 -104 -1 -186
-48 -232 -135 -33 -62 -31 -184 4 -247 27 -47 27 -47 -49 -175 -41 -70 -127
-216 -190 -323 -160 -272 -150 -257 -155 -240 -3 8 -10 65 -16 125 -13 134
-37 224 -95 355 -139 317 -417 568 -753 679 -155 52 -417 65 -608 32z m415
-162 c201 -29 396 -129 561 -286 132 -126 246 -318 289 -489 24 -93 39 -254
32 -341 -4 -61 -4 -61 -106 -103 -136 -57 -402 -167 -449 -187 -51 -22 -72
-62 -57 -109 24 -72 68 -71 252 7 204 86 298 122 305 115 9 -9 -93 -212 -135
-270 -160 -222 -406 -381 -664 -431 -107 -20 -288 -21 -403 0 -363 65 -666
321 -799 676 -45 123 -66 242 -66 381 0 313 148 617 399 819 236 190 520 264
841 218z m1748 -105 c47 -53 14 -139 -59 -150 -51 -8 -99 33 -99 85 0 90 98
131 158 65z"/>
<path d="M1475 2384 c-144 -30 -227 -63 -331 -135 -102 -71 -174 -151 -174
-192 1 -36 15 -58 47 -75 41 -22 62 -13 143 62 116 109 266 176 393 176 26 0
61 7 76 15 53 27 60 106 13 141 -16 13 -120 17 -167 8z"/>
<path d="M1491 1936 c-106 -35 -207 -139 -232 -239 -17 -70 -7 -194 20 -250
31 -64 99 -130 169 -164 50 -25 68 -28 147 -28 78 1 97 4 143 28 75 39 129 92
165 161 29 55 32 70 32 151 0 78 -4 98 -28 150 -57 123 -165 196 -297 202 -47
2 -92 -3 -119 -11z m194 -179 c54 -31 85 -87 85 -157 0 -104 -72 -179 -172
-180 -113 0 -180 67 -180 180 0 81 38 143 102 169 45 18 122 12 165 -12z"/>
<path d="M873 1856 c-27 -12 -35 -24 -49 -72 -19 -67 -13 -97 28 -127 20 -15
35 -18 62 -13 46 9 64 37 72 112 5 49 3 63 -12 81 -25 29 -62 36 -101 19z"/>
<path d="M3410 1497 c-40 -20 -50 -53 -50 -171 0 -102 -1 -109 -24 -127 -74
-58 -74 -191 0 -260 24 -22 24 -24 24 -216 0 -216 6 -243 60 -262 37 -12 72
-1 94 31 13 19 16 55 16 222 0 199 0 199 39 241 24 26 42 58 46 79 11 58 -3
104 -46 151 -39 42 -39 42 -39 148 0 116 -9 149 -47 166 -30 14 -42 14 -73 -2z"/>
</g>
</svg>
