<?xml version="1.0" encoding="utf-8"?>
<!-- Generator: Adobe Illustrator 24.1.3, SVG Export Plug-In . SVG Version: 6.00 Build 0)  -->
<svg version="1.1" id="Layer_1" xmlns="http://www.w3.org/2000/svg" xmlns:xlink="http://www.w3.org/1999/xlink" x="0px" y="0px"
	 viewBox="0 0 14 14" style="enable-background:new 0 0 14 14;" xml:space="preserve">
<style type="text/css">
	.st0{fill-rule:evenodd;clip-rule:evenodd;fill:#008DFF;}
</style>
<g id="Shape_2_31_">
	<path class="st0" d="M6.2,10.7C6.4,10.9,6.7,11,7,11l0,0l0,0c0.3,0,0.5-0.1,0.8-0.3l4.9-4.9c0.4-0.4,0.4-1,0-1.4s-1-0.4-1.4,0
		L8,7.7V1c0-0.6-0.4-1-1-1S6,0.4,6,1v6.7L2.7,4.4C2.3,4,1.7,4,1.3,4.4s-0.4,1,0,1.4L6.2,10.7z M13,12H1c-0.6,0-1,0.4-1,1s0.4,1,1,1
		h12c0.6,0,1-0.4,1-1S13.6,12,13,12z"/>
</g>
</svg>
