<?xml version="1.0" encoding="utf-8"?>
<!-- Generator: Adobe Illustrator 24.1.3, SVG Export Plug-In . SVG Version: 6.00 Build 0)  -->
<svg version="1.1" id="Layer_1" xmlns="http://www.w3.org/2000/svg" xmlns:xlink="http://www.w3.org/1999/xlink" x="0px" y="0px"
	 viewBox="0 0 15 16" style="enable-background:new 0 0 15 16;" xml:space="preserve">
<style type="text/css">
	.st0{fill-rule:evenodd;clip-rule:evenodd;fill:#578FB5;}
</style>
<g id="Shape_2_45_">
	<g>
		<path class="st0" d="M14,3H1C0.4,3,0,3.4,0,4s0.4,1,1,1h1v9c0,1.1,0.9,2,2,2h7c1.1,0,2-0.9,2-2V5h1c0.6,0,1-0.4,1-1S14.6,3,14,3z
			 M11,14H4V5h7V14z M6,1h3c0.6,0,1,0.4,1,1h1c0-1.1-0.9-2-2-2H6C4.9,0,4,0.9,4,2h1C5,1.4,5.4,1,6,1z M5.5,13C5.8,13,6,12.8,6,12.5
			v-6C6,6.2,5.8,6,5.5,6S5,6.2,5,6.5v6C5,12.8,5.2,13,5.5,13z M7.5,13C7.8,13,8,12.8,8,12.5v-6C8,6.2,7.8,6,7.5,6S7,6.2,7,6.5v6
			C7,12.8,7.2,13,7.5,13z M9.5,13c0.3,0,0.5-0.2,0.5-0.5v-6C10,6.2,9.8,6,9.5,6S9,6.2,9,6.5v6C9,12.8,9.2,13,9.5,13z"/>
	</g>
</g>
</svg>
